<?xml version="1.0" encoding="UTF-8"?> <svg xmlns="http://www.w3.org/2000/svg" xmlns:xlink="http://www.w3.org/1999/xlink" version="1.1" x="0px" y="0px" viewBox="0 0 576.5 468.5" style="enable-background:new 0 0 576.5 468.5;" xml:space="preserve"> <style type="text/css"> .st0{fill:#BAD7E5;} .st1{opacity:0.3;} .st2{fill:#FFFFFF;} .st3{fill:#2E3054;} .st4{fill:#F5B29C;} .st5{fill:#312555;} .st6{fill:#ECB49F;} .st7{fill:#FA7071;} .st8{opacity:0.4;fill:#ECB49F;} </style> <g id="Layer_5"> </g> <g id="Layer_4"> </g> <g id="Layer_2"> <g> <path class="st0" d="M541.7,204.7c-51.1,46.1-127.1,50.5-176.6,99c-24.2,23.8-35.4,57.1-58.3,81.9c-22.1,23.9-52.4,39.2-84.2,45.1 C94.1,454.8-39.6,308,11,182.2C31.5,131,81.4,99.6,133.7,88.5c41.5-8.8,84.2-8.3,126.4-10.6c40.5-2.2,79.5-10.1,119.1-17.9 c48.3-9.6,105.5-19.7,152.2,1.5C592.8,89.3,586.8,164.2,541.7,204.7C515.2,228.7,568.3,180.8,541.7,204.7z"></path> <g class="st1"> <path class="st2" d="M298.2,414.1c1.5-2.8,2.8-5.7,4.2-8.6c-2.8,2.6-5.3,5.1-7.5,7.7L298.2,414.1z"></path> </g> <g> <g> <path class="st3" d="M204.1,235.7c0.2,1.1-7.4-61.7,20.8-66.6c28.2-4.9-20.6,67.7-20.6,67.7L204.1,235.7z"></path> </g> </g> <g> <path class="st3" d="M225.2,44.6c-7.9,7.6-12.6,15.9-12.6,27.2c0,6.2,0.8,10.3,3.4,15.5c2.3,4.5,7.5,9.1,8.6,13.6 c-7.5,0.4-13.8,0.6-20,5.8c-19.7,16.7-20.6,56.1,7.2,66.5c4.6,1.7,11,2.6,15.2,0.9c-9.4-5.5-21.3,12-13.5,21 c9.2,10.7,31.9,11.1,44.9,11.7c15,0.7,37.6,3.2,49.8-6.6c9.3-7.5,14.2-23.2,16.3-34.1c3.8,8.6,7.7,19.4,17.3,22.6 c9.4,3.1,20.6-2.3,25.8-10.1c5.2-7.7,3.1-18.4-2.1-25.2c-2.5-3.3-17.5-21.1-21.7-19.5c18.7-7.1,18.8-27.2,14.9-45.9 C347.2,32.3,268,4.5,226,43.9C225.7,44.2,225.5,44.4,225.2,44.6z"></path> <path class="st4" d="M263.8,99.8c-3.8,6.8,1.5,22.3-1.6,29.5c-3.4,7.8-9.8,15.5-16.7,19.9c-6.8,4.3-15,9.6-9.7,17.3 c6.2,9,52.7,39.2,63.3,33.8c18.6-9.5,36.6-34.9,9.4-51.5c-7.1-4.3-10.5-12.4-12.8-20.2c-2.1-7.2,1.2-25.8-4.1-29.9 c-2.7-2-22.2-3-25.3-1.4C265.2,97.9,264.4,98.8,263.8,99.8z"></path> <path class="st5" d="M219.1,349c-4.4,8.8-16.4,10.8-25.3,13.6c-22.3,7-45.3,11.1-67.5,18.3c-21.5,7-56.3,18.2-57.6,45.6 c-0.4,8.8,4.5,18.2,9.9,24.9c7.6,9.5,18.1,10.6,29.6,12.9c24.7,5,52.2,5.8,76.8,0.3c22.5-5,45.5-11.5,67.6-18.1 c12.3-3.7,33.4-14.1,45.9-9.5L219.1,349z"></path> <path class="st5" d="M433.6,379.2c23.4,7.8,53.3,17.6,58,45.3c2.5,14.7,3.5,24.5-11.6,32.2c-7,3.5-17.7,5.9-25.5,6.7 c-3.7,0.4-7.2,1-10.8,1.2c-7.5,0.4-15.2,0-22.7,0c-23.8,0-47.4-5.2-70.1-10.1c-31.1-6.6-59.4-20.2-91.6-21.3 c-13.5-0.5-20.5-1.9-32.7-8.5c-6.3-3.4-9.6-7.5-13.6-13.2c-3-4.3-8.6-8.6-7.8-14.5c0.6-4.1,4.1-7.1,4.9-10.8 c0.5-2.7-0.8-4.7-1.1-7.6c-0.5-6.2,1.7-11.8,4.8-17.1c4.4-7.5,3.9-13.8,12.6-14.8c8-1,16.9,0.3,25,0.3c11.3,0,22.5,0.5,33.6,1.9 c15.1,1.9,30.6,5.1,45.9,2.9c9-1.3,9.2-2.6,16.6,2c5.5,3.4,12.2,4.6,18.3,6.6C388,367.6,411.1,371.8,433.6,379.2z"></path> <path class="st4" d="M324.7,414.3c10.9-4.7,33-16.3,44.4-9.5c-0.8-10.7-19.8-10-27.3-11.3c-11-1.9-19.6-7.2-30.1-9.6 c-19.3-4.4-5.7,12.3-15.6,19.2c-4,2.8-15.6,3.5-20.6,4.7c-6.2,1.4-12.1,3.5-18.3,5c-4.6,1.2-9.2,0.9-13.8,2.3 c-4.8,1.4-9.1,4.5-13.9,6.1c-8.4,2.7-17.8,2.8-25.9,5.8c1.7,7.9,8.5,13.8,9.8,21.9c0.3,1.6,0.5,3,0.7,4.2 c0.9,4.7,67.8-17.7,73.5-20.6C299.9,426.2,312.1,419.7,324.7,414.3z"></path> <path class="st5" d="M200.8,418.3c26.5,2.5,57.1-9.4,82.6-14.5c10.7-2.2,0.2,32.3,0.2,32.3s-15.5,3.3-44.8,14.2 c-9.8,3.6-21.4,8.3-31.6,9.3c-8.9,0.9-9.1-0.6-10.2-9.9c-1.3-10.4-2.5-22.2-1.2-32.6L200.8,418.3z"></path> <path class="st4" d="M315.2,445.9c-5.5-1.3-10-4.8-15.3-6.8c-8-3.2-16.2-5.7-24.1-9.1c-13.9-5.9-27.3-13-40.9-19.2 c-10.4-4.7-31.4-16-43.2-11c1.6-9,20.4-7.2,27.9-7.7c11-0.8,20-4.8,30.5-6.1c19.5-2.4,4.6,10.8,13.9,17.4 c3.8,2.7,15.2,4.1,20.1,5.4c6,1.6,11.8,3.8,17.8,5.5c2.7,0.8,5.2,1.3,7.9,1.8c-0.8,6.7-14.3,12.8-17.8,19.2L315.2,445.9z"></path> <path class="st5" d="M471.8,466.1c-13.6,4.4-30.1,1.8-43.6,0.6c-13.6-1.3-26.4,0-40-2c-18.2-2.7-36-6.9-53.7-11.8 c-10.5-2.9-20.5-6.8-30.6-10.4c-7.3-2.6-14.9-4.7-22.2-7.4c-5.6-2.1-10-6.1-16.1-7.4c4.1-4.9,7.6-10.3,11.6-15.4 c3.8-4.8,4.4-6.3,11.4-4.4c9.9,2.6,18.9,8.1,28.5,10.3c4.2,0.9,7.5,0.7,11.2,0.7c0.8,0,1.5,0,2.3,0c5.6,0.2,10.5,2.4,16,3.2 c6.4,0.9,12.6,1.9,19.6,1.9c19,0,35.4-1.9,53.2-8c8-2.8,15.5-4.1,23.3-7.5c9.3-4.1,13.5-9.1,14.4-20c8.9,0.7,21.8,9.9,27,16.2 c11.5,14,12.8,45.9-3.2,57.1C478.1,463.5,475.1,465,471.8,466.1z"></path> <path class="st6" d="M277.5,129.3c8.1-1.2,13.4-4,17.3-8.5c-0.1-8.4,0.6-19.1-3.3-22c-2.7-2-22.2-3-25.3-1.4 c-1.1,0.6-1.8,1.4-2.4,2.5c-2.2,4-1.3,11.1-0.8,17.6C267.7,123.9,273.3,129.9,277.5,129.3z"></path> <path class="st6" d="M238.4,46.1c0,0,9.7,72.7,37.5,74.7c27.8,2,36.9-39.4,39.1-68c2.4-32-0.5-41.7-39.5-43.6 C237.9,7.4,238.4,46.1,238.4,46.1z"></path> <path class="st3" d="M322.8,35.9c-0.3,2.3-0.9,4.7-1.4,7.3c9.9-0.2,9.7,15.7,6.4,21.4c-0.5,1-4.2,3.9-4.2,4.6c0,2,3.9,1.8,3.4,5 c-0.7,4.7-6.9,8.2-11.5,6.5c-3.5-1.3-2.8-5.4-3.3-8.6c-1.3-8-4.2-11.8-9.6-17.1c-4.1-4-11.5-9.7-12.1-15.6 c-7.6,13.6-24.2,15.9-38.3,12.7c-2,8.2-0.5,12.7-8.6,17.4c-7.8,4.6-9.2,0.6-15.6-3.8c-1.5-6.6,3.5-13.8,7.3-16.7 c-9.6-9.2-1.5-23.7,7.6-33.4c11.2-11.9,24.6-16.7,40.3-15.6c7.3,0.5,17.2,4,22.5,9.2c4.1,4,8.5,6.5,9,15.5 C322.8,25.8,323.7,30.2,322.8,35.9z"></path> <path class="st4" d="M437.5,354.8c-0.8-3.9-21.3-68.9-26-77.1c-4.7-8.1-21.4-44.4-25.1-55.5c-3.3-9.8-16.2-39-16.2-39 c-3.3-7.4-6.3-16.4-13.4-20.9c-13.8-8.8-22.7,6.5-24.9,17.8c-3,15.9,8,25.2,14.1,40.1c10.9,26.7,21.6,43.4,36.4,68.4 c6.1,15.6,13.2,33.6,20,45.2c6.1,10.4,11,21,15.9,31.8c0.2,0.7,0.4,1.3,0.6,2c2,7.4,3.2,17.7,3.9,25.3c0.1,0.8,1.8,20.7,4.1,18.9 c4.7-3.6,1.8-17.9,7.2-16.3c5.3,1.6,17.2,36.1,21.3,36.4c4.1,0.3-8.6-30.5-6.9-30.2c1.8,0.3,12,25.1,19,28.1 c0.8-7.2-13.1-30.2-11.4-30.8c1.7-0.6,19.2,18.7,21.9,17.6c2.7-1-7.6-11.4-12.7-17.2c-6.1-6.9-9.5-14.4-9.5-14.4 s18.1,18.1,23.7,17.6C484.7,402.2,450.4,375.2,437.5,354.8z"></path> <path class="st4" d="M122.1,357.4c0.8-3.9,20.3-69.4,24.9-77.6c4.6-8.2,20.8-44.8,24.4-55.9c3.1-9.9,15.6-39.3,15.6-39.3 c3.3-7.4,6.1-16.6,13.2-21.2c13.8-9,23,6.2,25.3,17.4c3.3,15.9-7.7,25.4-13.5,40.3c-10.5,26.9-21,43.9-35.6,69 c-5.9,15.7-12.7,33.8-19.4,45.6c-6,10.5-10.8,21.2-15.5,32.1c-0.2,0.7-0.4,1.3-0.6,2c-1.9,7.4-3,17.8-3.5,25.4 c-0.1,0.8-1.5,20.7-3.8,19c-4.8-3.5-2.1-17.9-7.5-16.2c-5.3,1.7-16.8,36.4-20.9,36.7c-4.1,0.4,8.2-30.7,6.4-30.4 c-1.8,0.3-11.7,25.3-18.7,28.4c-0.9-7.2,12.7-30.4,11-31c-1.7-0.6-19,19-21.8,18c-2.7-1,7.4-11.5,12.5-17.5 c6-7,9.4-14.6,9.4-14.6s-17.9,18.5-23.6,18C75.4,405.6,109.5,377.9,122.1,357.4z"></path> <path class="st7" d="M353.4,158c-10-12.7-32.1-4.7-39.5-4.8c3.4,0-7.8,10.3-17.1,12.6c-5.5,1.4-11.2,1.9-16.8,1.8v-0.1 c-0.5,0-0.9,0-1.4,0c-0.5,0-0.9,0-1.4,0v0.1c-5.7,0.2-11.3-0.4-16.8-1.8c-9.3-2.3-20.4-12.6-17.1-12.6 c-7.4,0.1-29.5-7.9-39.5,4.8c-3.8,4.9-11.2,6.2-7.6,11.1c3.6,4.9,10.3,14.3,12.9,30.3c2.7,16-3.3,38.1-3.3,38.1s4,22.7,5.5,38.2 c1.2,12.3,3.8,23.1,4.5,35.4c0.5,8.9-0.4,17.9,0.6,26.7c0.6,5,0.2,12.8,4.1,16.4c2.8,2.6,7.2,3.9,10.7,4.8 c11.5,3.2,23,3.4,34.9,2.8c4.1-0.2,8.3-0.3,12.5-0.3c4.2,0,8.3,0.1,12.5,0.3c11.9,0.6,23.4,0.4,34.9-2.8c3.5-1,7.9-2.2,10.7-4.8 c3.8-3.6,3.5-11.4,4.1-16.4c1.1-8.8,0.1-17.9,0.6-26.7c0.7-12.3,3.4-23.1,4.5-35.4c1.5-15.5,5.5-38.2,5.5-38.2 s-0.5-18.1,2.7-34.1c4.7-16.7,9.1-23.2,12.7-28.1C370.3,170.4,357.2,162.8,353.4,158z"></path> <path class="st8" d="M346.2,214.8H211.5c0,0-0.9,1.1-2.1,3.2c-1.1,10.6-3.5,19.5-3.5,19.5s3.6,20.4,5.2,35.7 c0.7,1.3,1.5,2.6,2.3,4c0,0,7.7,7.6,30.5,8.9c7.5,0.4,60.9,0.4,68.1,0.1c24.2-0.9,32.3-9,32.3-9c0.6-1,1.2-2,1.8-3 c1.6-15.4,5.3-36.7,5.3-36.7s-0.1-5.2,0.2-12.5C349.1,218.4,346.2,214.8,346.2,214.8z"></path> <path class="st7" d="M344.9,207.4c0,0,20.8,24.7-1.9,58.9c0,0-13.6,12.8-58.3,7.1h-14.3c-44.7,5.7-58.3-7.1-58.3-7.1 c-22.8-34.2-1.9-58.9-1.9-58.9H344.9z"></path> </g> </g> </g> </svg> 