<svg width="86" height="80" viewBox="0 0 86 80" fill="none" xmlns="http://www.w3.org/2000/svg">
<path fill-rule="evenodd" clip-rule="evenodd" d="M41.9581 0.233008C41.9581 0.403825 41.9084 0.466015 41.7717 0.466015C41.6207 0.466015 41.5852 0.528206 41.5852 0.792356C41.5852 1.05651 41.5497 1.1187 41.3987 1.1187C41.2782 1.1187 41.2122 1.18089 41.2122 1.29427C41.2122 1.39152 41.129 1.49166 41.0257 1.5187C40.8829 1.55599 40.8393 1.64588 40.8393 1.90248C40.8393 2.13819 40.7978 2.23758 40.6994 2.23758C40.6217 2.23758 40.5595 2.32047 40.5595 2.42406C40.5595 2.54835 40.4973 2.61054 40.3731 2.61054C40.2212 2.61054 40.1866 2.67273 40.1866 2.94565C40.1866 3.19674 40.1421 3.29232 40.0089 3.32719C39.8957 3.35675 39.8095 3.48896 39.7716 3.69138C39.7387 3.86612 39.6562 4.00915 39.5882 4.00915C39.516 4.00915 39.4396 4.1643 39.4048 4.38211C39.3662 4.62341 39.2962 4.75507 39.2064 4.75507C39.1068 4.75507 39.0677 4.85996 39.0677 5.12803C39.0677 5.43032 39.0346 5.50099 38.8931 5.50099C38.7616 5.50099 38.7039 5.59283 38.6589 5.87395C38.6203 6.11526 38.5503 6.24691 38.4605 6.24691C38.3608 6.24691 38.3218 6.35181 38.3218 6.61988C38.3218 6.93065 38.2907 6.99284 38.1353 6.99284C37.9799 6.99284 37.9488 7.05503 37.9488 7.3658C37.9488 7.67657 37.9178 7.73876 37.7623 7.73876C37.6126 7.73876 37.5758 7.80095 37.5758 8.05419C37.5758 8.2913 37.5295 8.38184 37.3894 8.41848C37.2465 8.45578 37.2029 8.54566 37.2029 8.80226C37.2029 9.03163 37.1606 9.13736 37.0687 9.13736C36.9813 9.13736 36.9127 9.28329 36.8717 9.55695C36.8351 9.80096 36.7592 9.97653 36.6903 9.97653C36.5531 9.97653 36.46 10.2663 36.4583 10.6991L36.457 11.0022H35.7577C35.1205 11.0022 35.0584 10.9856 35.0584 10.8157C35.0584 10.6603 34.9962 10.6292 34.6854 10.6292C34.4311 10.6292 34.3124 10.5885 34.3124 10.501C34.3124 10.3678 33.9246 10.2562 33.4616 10.2562C33.2864 10.2562 33.1936 10.2081 33.1936 10.1175C33.1936 10.0277 33.0619 9.95769 32.8206 9.91909C32.6155 9.88627 32.4476 9.80711 32.4476 9.74315C32.4476 9.62557 32.0497 9.51033 31.6434 9.51033C31.5121 9.51033 31.422 9.45531 31.422 9.37513C31.422 9.279 31.26 9.22156 30.8625 9.17653C30.5024 9.13578 30.3031 9.0707 30.3031 8.99368C30.3031 8.92674 30.1387 8.84627 29.9301 8.81102C29.7009 8.77233 29.5572 8.69727 29.5572 8.61634C29.5572 8.53345 29.4578 8.48468 29.2891 8.48468C28.8261 8.48468 28.4383 8.37317 28.4383 8.23993C28.4383 8.15256 28.3196 8.11172 28.0653 8.11172C27.7546 8.11172 27.6924 8.08067 27.6924 7.92524C27.6924 7.77727 27.6298 7.73848 27.3893 7.73745C26.9465 7.73559 26.6667 7.6417 26.6667 7.49475C26.6667 7.40598 26.5478 7.3658 26.285 7.3658C25.9818 7.3658 25.8933 7.32748 25.8546 7.17932C25.8134 7.02193 25.7274 6.99284 25.3038 6.99284C24.8641 6.99284 24.8019 6.96971 24.8019 6.80636C24.8019 6.64058 24.7397 6.61988 24.2425 6.61988C23.7452 6.61988 23.683 6.59918 23.683 6.4334C23.683 6.27796 23.6208 6.24691 23.3101 6.24691C23.0547 6.24691 22.9371 6.20626 22.9371 6.11796C22.9371 5.97223 22.658 5.87712 22.2254 5.87526C22.0123 5.87433 21.9201 5.82351 21.8844 5.68747C21.8471 5.54463 21.7573 5.50099 21.5007 5.50099C21.2785 5.50099 21.1656 5.45782 21.1656 5.37279C21.1656 5.23955 20.7778 5.12803 20.3147 5.12803C20.1494 5.12803 20.0467 5.07889 20.0467 4.99983C20.0467 4.87199 19.6625 4.75507 19.2425 4.75507C19.1078 4.75507 19.021 4.70024 19.021 4.61521C19.021 4.53829 18.9418 4.47535 18.8449 4.47535C18.7178 4.47535 18.652 4.56523 18.6082 4.79815C18.5565 5.07386 18.5017 5.12952 18.2316 5.18025C17.9514 5.23283 17.9085 5.28085 17.8539 5.60337C17.8165 5.82556 17.7412 5.96719 17.6608 5.96719C17.5586 5.96719 17.5292 6.1313 17.5292 6.70146C17.5292 7.60524 17.4523 8.01848 17.2844 8.01848C17.1855 8.01848 17.156 8.20468 17.1554 8.83433C17.1543 9.97942 17.0655 10.6292 16.9102 10.6292C16.8091 10.6292 16.7831 10.8999 16.7824 11.9579C16.7815 13.5922 16.7099 14.2656 16.5372 14.2656C16.4341 14.2656 16.4103 14.6417 16.4103 16.2702C16.4103 18.2127 16.4045 18.2749 16.2238 18.2749C16.1213 18.2749 16.0373 18.2166 16.0373 18.1454C16.0373 18.0457 15.7791 18.0003 14.9185 17.9486C14.0578 17.8968 13.7996 17.8514 13.7996 17.7517C13.7996 17.6574 13.6643 17.6222 13.3005 17.6222C12.3901 17.6222 11.655 17.5122 11.655 17.3759C11.655 17.285 11.5142 17.2493 11.1559 17.2493C10.2455 17.2493 9.51051 17.1392 9.51051 17.0029C9.51051 16.9086 9.34725 16.8763 8.86948 16.8763C8.05494 16.8763 7.64571 16.7944 7.64571 16.6316C7.64571 16.5317 7.44804 16.5033 6.75116 16.5033C5.93512 16.5033 5.85241 16.487 5.80794 16.3169C5.76346 16.1469 5.68076 16.1304 4.87554 16.1304C4.07031 16.1304 3.98752 16.1139 3.94313 15.9439C3.89819 15.772 3.81595 15.7574 2.89045 15.7574C1.96495 15.7574 1.88271 15.7429 1.83777 15.5709C1.79907 15.4228 1.71059 15.3845 1.40737 15.3845C1.08783 15.3845 1.02564 15.4149 1.02564 15.5709C1.02564 15.7349 0.963452 15.7574 0.512822 15.7574H0V16.6898C0 17.413 0.0284385 17.6222 0.126621 17.6222C0.272355 17.6222 0.372961 18.3702 0.372961 19.4541C0.372961 19.9727 0.404103 20.1397 0.500794 20.1397C0.596178 20.1397 0.645409 20.3766 0.694734 21.0721C0.74527 21.7843 0.79217 22.0045 0.893242 22.0045C0.989466 22.0045 1.02564 22.1286 1.02564 22.4591C1.02564 23.0966 1.12 23.4964 1.2704 23.4964C1.35963 23.4964 1.3986 23.6204 1.3986 23.9043C1.3986 24.4979 1.49669 24.895 1.64336 24.895C1.74089 24.895 1.77157 25.0644 1.77157 25.603C1.77157 26.2326 1.79227 26.3164 1.95805 26.3598C2.11376 26.4005 2.14471 26.4876 2.14583 26.8872C2.14742 27.497 2.22537 27.7854 2.38854 27.7854C2.48401 27.7854 2.51749 27.9307 2.51749 28.3449C2.51749 28.8421 2.53819 28.9043 2.70397 28.9043C2.86975 28.9043 2.89045 28.9665 2.89045 29.4638C2.89045 29.961 2.91115 30.0232 3.07693 30.0232C3.24029 30.0232 3.26341 30.0854 3.26341 30.5251C3.26341 30.9487 3.2925 31.0347 3.44989 31.0759C3.60831 31.1173 3.63637 31.2031 3.63637 31.6461C3.63637 32.1055 3.65856 32.1677 3.82285 32.1677C3.97828 32.1677 4.00933 32.2299 4.00933 32.5407C4.00933 32.7949 4.05017 32.9136 4.13754 32.9136C4.27078 32.9136 4.38229 33.3014 4.38229 33.7645C4.38229 33.9397 4.43041 34.0325 4.52104 34.0325C4.61083 34.0325 4.68085 34.1642 4.71945 34.4055C4.75311 34.616 4.83125 34.7785 4.89885 34.7785C4.96589 34.7785 5.04635 34.9426 5.0816 35.1514C5.12029 35.3807 5.19535 35.5244 5.27628 35.5244C5.36244 35.5244 5.4084 35.6292 5.40924 35.8274C5.41102 36.2589 5.50398 36.55 5.64001 36.55C5.70444 36.55 5.78388 36.7176 5.8167 36.923C5.85531 37.1643 5.92533 37.2959 6.01512 37.2959C6.11479 37.2959 6.15386 37.4008 6.15386 37.6689C6.15386 37.9797 6.18491 38.0419 6.34034 38.0419C6.49577 38.0419 6.52682 38.104 6.52682 38.4148C6.52682 38.7256 6.55787 38.7878 6.7133 38.7878C6.86873 38.7878 6.89978 38.85 6.89978 39.1607C6.89978 39.4715 6.93083 39.5337 7.08626 39.5337C7.2417 39.5337 7.27274 39.5959 7.27274 39.9067C7.27274 40.2174 7.30379 40.2796 7.45923 40.2796C7.61018 40.2796 7.64571 40.3418 7.64571 40.606C7.64571 40.8701 7.68123 40.9323 7.83219 40.9323C7.98762 40.9323 8.01867 40.9945 8.01867 41.3053C8.01867 41.616 8.04972 41.6782 8.20515 41.6782C8.36058 41.6782 8.39163 41.7404 8.39163 42.0512C8.39163 42.362 8.42268 42.4242 8.57811 42.4242C8.7024 42.4242 8.76459 42.4863 8.76459 42.6106C8.76459 42.7132 8.8238 42.7971 8.89625 42.7971C8.97718 42.7971 9.05224 42.9408 9.09093 43.1701C9.12851 43.3925 9.20534 43.543 9.28142 43.543C9.35322 43.543 9.43555 43.6854 9.47005 43.8694C9.5051 44.0563 9.5866 44.1957 9.66072 44.1957C9.73196 44.1957 9.79023 44.2836 9.79023 44.391C9.79023 44.5045 9.86455 44.6056 9.96795 44.6326C10.0811 44.6622 10.1673 44.7944 10.2052 44.9968C10.2407 45.1854 10.32 45.3146 10.4005 45.3146C10.476 45.3146 10.5362 45.4011 10.5362 45.5098C10.5362 45.6266 10.611 45.7246 10.7226 45.7538C10.8628 45.7904 10.9091 45.8809 10.9091 46.1181C10.9091 46.3713 10.9459 46.4335 11.0956 46.4335C11.2199 46.4335 11.2821 46.4957 11.2821 46.62C11.2821 46.7443 11.3443 46.8064 11.4686 46.8064C11.624 46.8064 11.655 46.8686 11.655 47.1794C11.655 47.4902 11.6861 47.5524 11.8415 47.5524C11.9658 47.5524 12.028 47.6146 12.028 47.7389C12.028 47.8631 12.0902 47.9253 12.2145 47.9253C12.3388 47.9253 12.401 47.9875 12.401 48.1118C12.401 48.2144 12.462 48.2983 12.5366 48.2983C12.6177 48.2983 12.6968 48.4293 12.7335 48.6246C12.7708 48.8233 12.8488 48.951 12.9329 48.951C13.0089 48.951 13.0921 49.031 13.1176 49.1289C13.1432 49.2267 13.2441 49.3277 13.3419 49.3532C13.4455 49.3803 13.5198 49.4813 13.5198 49.5949C13.5198 49.7036 13.58 49.7901 13.6555 49.7901C13.7366 49.7901 13.8157 49.9211 13.8523 50.1165C13.8874 50.3034 13.9689 50.4428 14.043 50.4428C14.1143 50.4428 14.1725 50.5267 14.1725 50.6293C14.1725 50.7536 14.2347 50.8158 14.359 50.8158C14.4833 50.8158 14.5455 50.878 14.5455 51.0023C14.5455 51.1266 14.6077 51.1887 14.732 51.1887C14.8563 51.1887 14.9185 51.2509 14.9185 51.3752C14.9185 51.4995 14.9806 51.5617 15.1049 51.5617C15.2292 51.5617 15.2914 51.6239 15.2914 51.7482C15.2914 51.8725 15.3536 51.9347 15.4779 51.9347C15.6022 51.9347 15.6644 51.9969 15.6644 52.1211C15.6644 52.2454 15.7266 52.3076 15.8509 52.3076C15.9751 52.3076 16.0373 52.3698 16.0373 52.4941C16.0373 52.6184 16.0995 52.6806 16.2238 52.6806C16.3748 52.6806 16.4103 52.7428 16.4103 53.0069C16.4103 53.2711 16.4458 53.3333 16.5968 53.3333C16.7211 53.3333 16.7833 53.3955 16.7833 53.5198C16.7833 53.644 16.8454 53.7062 16.9697 53.7062C17.094 53.7062 17.1562 53.7684 17.1562 53.8927C17.1562 54.017 17.2184 54.0792 17.3427 54.0792C17.467 54.0792 17.5292 54.1414 17.5292 54.2657C17.5292 54.39 17.5914 54.4522 17.7157 54.4522C17.8399 54.4522 17.9021 54.5143 17.9021 54.6386C17.9021 54.7629 17.9643 54.8251 18.0886 54.8251C18.2129 54.8251 18.2751 54.8873 18.2751 55.0116C18.2751 55.1359 18.3373 55.1981 18.4616 55.1981C18.5859 55.1981 18.6481 55.2603 18.6481 55.3846C18.6481 55.5355 18.7103 55.571 18.9744 55.571C19.2386 55.571 19.3007 55.6066 19.3007 55.7575C19.3007 55.8818 19.3629 55.944 19.4872 55.944C19.6115 55.944 19.6737 56.0062 19.6737 56.1305C19.6737 56.2548 19.7359 56.317 19.8602 56.317C19.9845 56.317 20.0467 56.3792 20.0467 56.5034C20.0467 56.6277 20.1089 56.6899 20.2331 56.6899C20.3574 56.6899 20.4196 56.7521 20.4196 56.8764C20.4196 57.0007 20.4818 57.0629 20.6061 57.0629C20.7304 57.0629 20.7926 57.1251 20.7926 57.2494C20.7926 57.3737 20.8548 57.4358 20.9791 57.4358C21.0827 57.4358 21.1656 57.498 21.1656 57.5757C21.1656 57.6534 21.2484 57.7156 21.352 57.7156C21.4727 57.7156 21.5385 57.7778 21.5385 57.8917C21.5385 58.0191 21.6287 58.0847 21.8649 58.129C22.0602 58.1656 22.1912 58.2447 22.1912 58.3258C22.1912 58.4004 22.2751 58.4615 22.3777 58.4615C22.502 58.4615 22.5642 58.5237 22.5642 58.648C22.5642 58.7751 22.6263 58.8344 22.7594 58.8344C22.873 58.8344 22.974 58.9088 23.0011 59.0122C23.0306 59.1254 23.1629 59.2115 23.3653 59.2495C23.5538 59.2849 23.683 59.3642 23.683 59.4447C23.683 59.5193 23.767 59.5804 23.8695 59.5804C23.9938 59.5804 24.056 59.6426 24.056 59.7669C24.056 59.9223 24.1182 59.9533 24.429 59.9533C24.7397 59.9533 24.8019 59.9844 24.8019 60.1398C24.8019 60.2641 24.8641 60.3263 24.9884 60.3263C25.1127 60.3263 25.1749 60.3885 25.1749 60.5128C25.1749 60.6625 25.2371 60.6993 25.4903 60.6993C25.7274 60.6993 25.818 60.7456 25.8546 60.8857C25.8838 60.9973 25.9818 61.0722 26.0985 61.0722C26.2316 61.0722 26.2938 61.1316 26.2938 61.2587C26.2938 61.4084 26.356 61.4452 26.6092 61.4452C26.8463 61.4452 26.9368 61.4915 26.9735 61.6317C27.0027 61.7433 27.1007 61.8181 27.2174 61.8181C27.3248 61.8181 27.4127 61.8764 27.4127 61.9476C27.4127 62.0218 27.552 62.1033 27.739 62.1383C27.923 62.1728 28.0653 62.2552 28.0653 62.327C28.0653 62.403 28.2158 62.4799 28.4383 62.5174C28.654 62.5539 28.8113 62.6325 28.8113 62.7039C28.8113 62.7753 28.9686 62.8539 29.1842 62.8904C29.3999 62.9269 29.5572 63.0055 29.5572 63.0769C29.5572 63.1483 29.7145 63.2269 29.9301 63.2634C30.1418 63.2992 30.3031 63.3788 30.3031 63.4477C30.3031 63.5144 30.45 63.5965 30.6294 63.6302C30.8248 63.6668 30.9558 63.7459 30.9558 63.827C30.9558 63.9236 31.0656 63.9627 31.3375 63.9627C31.6407 63.9627 31.7292 64.001 31.7679 64.1491C31.8061 64.2953 31.8951 64.3356 32.1788 64.3356C32.4787 64.3356 32.5409 64.3676 32.5409 64.5221C32.5409 64.686 32.6031 64.7086 33.0537 64.7086C33.5043 64.7086 33.5665 64.7312 33.5665 64.8951C33.5665 65.0505 33.6287 65.0816 33.9395 65.0816C34.1937 65.0816 34.3124 65.1224 34.3124 65.2098C34.3124 65.343 34.7002 65.4545 35.1633 65.4545C35.3293 65.4545 35.4313 65.5036 35.4313 65.5835C35.4313 65.7304 35.711 65.8243 36.1539 65.8262C36.3482 65.827 36.457 65.8734 36.457 65.9557C36.457 66.0889 36.8447 66.2004 37.3078 66.2004C37.4751 66.2004 37.5758 66.2494 37.5758 66.3306C37.5758 66.4256 37.7772 66.4786 38.3218 66.5268C38.8308 66.5718 39.0677 66.6306 39.0677 66.712C39.0677 66.7923 39.2956 66.8526 39.767 66.8968C40.2768 66.9445 40.4663 66.998 40.4663 67.0941C40.4663 67.1898 40.5911 67.2261 40.9208 67.2261C41.544 67.2261 41.9581 67.3196 41.9581 67.4603C41.9581 67.6082 42.4011 67.6761 42.9939 67.6192C43.2805 67.5916 43.45 67.5308 43.45 67.4555C43.45 67.3884 43.614 67.308 43.8229 67.2727C44.0323 67.2374 44.1959 67.157 44.1959 67.0897C44.1959 66.9636 44.5933 66.8531 45.0467 66.8531C45.2127 66.8531 45.3148 66.8041 45.3148 66.7242C45.3148 66.6318 45.5126 66.5768 46.0141 66.5298C46.5239 66.482 46.7134 66.4285 46.7134 66.3324C46.7134 66.2355 46.8437 66.2001 47.2029 66.1991C47.8231 66.1975 48.112 66.1204 48.112 65.9564C48.112 65.8698 48.2267 65.8271 48.4617 65.8262C48.9486 65.8244 49.2309 65.7354 49.2309 65.5835C49.2309 65.4968 49.3456 65.4541 49.5805 65.4532C50.0674 65.4514 50.3498 65.3624 50.3498 65.2105C50.3498 65.1222 50.4673 65.0816 50.7227 65.0816C51.0335 65.0816 51.0957 65.0505 51.0957 64.8951C51.0957 64.7293 51.1579 64.7086 51.6551 64.7086C52.1524 64.7086 52.2146 64.6879 52.2146 64.5221C52.2146 64.3667 52.2768 64.3356 52.5875 64.3356C52.8983 64.3356 52.9605 64.3046 52.9605 64.1491C52.9605 63.9937 53.0227 63.9627 53.3335 63.9627C53.6015 63.9627 53.7064 63.9236 53.7064 63.8239C53.7064 63.7341 53.8381 63.6641 54.0794 63.6255C54.3025 63.5898 54.4523 63.5149 54.4523 63.439C54.4523 63.3631 54.6022 63.2883 54.8253 63.2525C55.0431 63.2178 55.1983 63.1414 55.1983 63.0692C55.1983 63.0012 55.3451 62.9179 55.5246 62.8843C55.7041 62.8506 55.8509 62.7684 55.8509 62.7018C55.8509 62.6329 56.0123 62.5532 56.2239 62.5174C56.4396 62.481 56.5969 62.4024 56.5969 62.331C56.5969 62.2595 56.7542 62.1809 56.9698 62.1445C57.1815 62.1087 57.3428 62.029 57.3428 61.9601C57.3428 61.8935 57.4896 61.8113 57.6691 61.7777C57.8645 61.741 57.9955 61.662 57.9955 61.5808C57.9955 61.4983 58.0868 61.4452 58.2286 61.4452C58.3995 61.4452 58.4617 61.3955 58.4617 61.2587C58.4617 61.1077 58.5239 61.0722 58.788 61.0722C59.0448 61.0722 59.1144 61.035 59.1144 60.8977C59.1144 60.7661 59.2062 60.7084 59.4873 60.6635C59.7286 60.6249 59.8603 60.5548 59.8603 60.465C59.8603 60.3885 59.9438 60.3263 60.0468 60.3263C60.1711 60.3263 60.2332 60.2641 60.2332 60.1398C60.2332 59.9901 60.2954 59.9533 60.5487 59.9533C60.7858 59.9533 60.8763 59.907 60.913 59.7669C60.9421 59.6552 61.0401 59.5804 61.1569 59.5804C61.2899 59.5804 61.3521 59.521 61.3521 59.3939C61.3521 59.2696 61.4143 59.2074 61.5386 59.2074C61.6412 59.2074 61.7251 59.1463 61.7251 59.0717C61.7251 58.9913 61.8543 58.9119 62.0429 58.8765C62.2453 58.8386 62.3775 58.7524 62.4071 58.6392C62.4326 58.5415 62.5155 58.4615 62.5913 58.4615C62.667 58.4615 62.7509 58.3776 62.7778 58.275C62.807 58.1634 62.9049 58.0885 63.0217 58.0885C63.1331 58.0885 63.2169 58.0285 63.2169 57.9487C63.2169 57.8717 63.2838 57.8088 63.3656 57.8088C63.4472 57.8088 63.5358 57.7259 63.5623 57.6247C63.5936 57.5048 63.7208 57.4197 63.9265 57.3811C64.1056 57.3475 64.2426 57.2657 64.2426 57.1924C64.2426 57.1212 64.3265 57.0629 64.4291 57.0629C64.5533 57.0629 64.6155 57.0007 64.6155 56.8764C64.6155 56.7521 64.6777 56.6899 64.802 56.6899C64.9263 56.6899 64.9885 56.6277 64.9885 56.5034C64.9885 56.3792 65.0507 56.317 65.175 56.317C65.2993 56.317 65.3615 56.2548 65.3615 56.1305C65.3615 56.0062 65.4237 55.944 65.5479 55.944C65.6722 55.944 65.7344 55.8818 65.7344 55.7575C65.7344 55.6332 65.7966 55.571 65.9209 55.571C66.0452 55.571 66.1074 55.5088 66.1074 55.3846C66.1074 55.2603 66.1696 55.1981 66.2939 55.1981C66.3975 55.1981 66.4803 55.1359 66.4803 55.0582C66.4803 54.9813 66.5472 54.9184 66.629 54.9184C66.7106 54.9184 66.7995 54.8344 66.8263 54.7319C66.8531 54.6293 66.937 54.5454 67.0127 54.5454C67.0886 54.5454 67.1725 54.4615 67.1992 54.3589C67.2261 54.2564 67.31 54.1724 67.3857 54.1724C67.4615 54.1724 67.5454 54.0885 67.5722 53.986C67.599 53.8834 67.683 53.7995 67.7587 53.7995C67.8345 53.7995 67.9184 53.7156 67.9452 53.613C67.972 53.5104 68.0559 53.4265 68.1316 53.4265C68.2074 53.4265 68.2914 53.3426 68.3181 53.24C68.345 53.1375 68.425 53.0536 68.4959 53.0536C68.5668 53.0536 68.6249 52.9696 68.6249 52.8671C68.6249 52.7428 68.6871 52.6806 68.8113 52.6806C68.9356 52.6806 68.9978 52.6184 68.9978 52.4941C68.9978 52.3698 69.06 52.3076 69.1843 52.3076C69.3086 52.3076 69.3708 52.2454 69.3708 52.1211C69.3708 51.9969 69.433 51.9347 69.5573 51.9347C69.6816 51.9347 69.7438 51.8725 69.7438 51.7482C69.7438 51.6239 69.8059 51.5617 69.9302 51.5617C70.0545 51.5617 70.1167 51.4995 70.1167 51.3752C70.1167 51.2509 70.1789 51.1887 70.3032 51.1887C70.4542 51.1887 70.4897 51.1266 70.4897 50.8624C70.4897 50.6259 70.5306 50.5361 70.6383 50.5361C70.72 50.5361 70.8078 50.4561 70.8334 50.3582C70.8589 50.2603 70.9599 50.1594 71.0577 50.1338C71.1613 50.1068 71.2356 50.0057 71.2356 49.8921C71.2356 49.7847 71.2937 49.6969 71.3645 49.6969C71.4355 49.6969 71.5155 49.613 71.5424 49.5104C71.5691 49.4079 71.6533 49.3239 71.7293 49.3239C71.8134 49.3239 71.8915 49.1963 71.9287 48.9976C71.9674 48.7915 72.0432 48.6713 72.1343 48.6713C72.2138 48.6713 72.3007 48.5873 72.3274 48.4848C72.3543 48.3822 72.4343 48.2983 72.5053 48.2983C72.5761 48.2983 72.6342 48.2144 72.6342 48.1118C72.6342 47.9917 72.6964 47.9253 72.8088 47.9253C72.9403 47.9253 72.998 47.8335 73.043 47.5524C73.0816 47.3111 73.1516 47.1794 73.2414 47.1794C73.3179 47.1794 73.3801 47.0959 73.3801 46.9929C73.3801 46.8686 73.4423 46.8064 73.5666 46.8064C73.6909 46.8064 73.7531 46.7443 73.7531 46.62C73.7531 46.517 73.8153 46.4335 73.8918 46.4335C73.9816 46.4335 74.0516 46.3018 74.0902 46.0605C74.1352 45.7794 74.1929 45.6876 74.3245 45.6876C74.4368 45.6876 74.499 45.6212 74.499 45.5011C74.499 45.3981 74.5612 45.3146 74.6377 45.3146C74.7275 45.3146 74.7976 45.1829 74.8362 44.9416C74.8811 44.6605 74.9388 44.5687 75.0704 44.5687C75.2077 44.5687 75.2449 44.4991 75.2449 44.2423C75.2449 43.9782 75.2805 43.916 75.4314 43.916C75.5682 43.916 75.6179 43.8538 75.6179 43.6829C75.6179 43.5411 75.671 43.4498 75.7536 43.4498C75.8347 43.4498 75.9137 43.3188 75.9504 43.1235C75.984 42.944 76.0652 42.7971 76.1307 42.7971C76.1963 42.7971 76.2774 42.6503 76.311 42.4708C76.3477 42.2754 76.4268 42.1444 76.5079 42.1444C76.5904 42.1444 76.6435 42.0532 76.6435 41.9113C76.6435 41.7404 76.6932 41.6782 76.83 41.6782C76.9855 41.6782 77.0165 41.616 77.0165 41.3053C77.0165 40.9945 77.0475 40.9323 77.203 40.9323C77.3549 40.9323 77.3895 40.8701 77.3895 40.5972C77.3895 40.3406 77.4331 40.2507 77.5759 40.2134C77.7161 40.1768 77.7624 40.0862 77.7624 39.8491C77.7624 39.5959 77.7992 39.5337 77.9489 39.5337C78.1043 39.5337 78.1354 39.4715 78.1354 39.1607C78.1354 38.85 78.1664 38.7878 78.3219 38.7878C78.4773 38.7878 78.5083 38.7256 78.5083 38.4148C78.5083 38.104 78.5394 38.0419 78.6948 38.0419C78.8503 38.0419 78.8813 37.9797 78.8813 37.6689C78.8813 37.4008 78.9204 37.2959 79.02 37.2959C79.1098 37.2959 79.1799 37.1643 79.2185 36.923C79.2513 36.7178 79.3304 36.55 79.3944 36.55C79.5107 36.55 79.6272 36.1531 79.6272 35.7567C79.6272 35.6245 79.6967 35.5279 79.8137 35.4973C79.9566 35.46 80.0002 35.3702 80.0002 35.1136C80.0002 34.8871 80.0429 34.7785 80.1318 34.7785C80.2128 34.7785 80.2878 34.6348 80.3265 34.4055C80.3652 34.1762 80.4403 34.0325 80.5212 34.0325C80.6041 34.0325 80.6529 33.9331 80.6529 33.7645C80.6529 33.3014 80.7644 32.9136 80.8976 32.9136C80.9827 32.9136 81.0258 32.8007 81.0258 32.5785C81.0258 32.3219 81.0695 32.2321 81.2123 32.1948C81.3702 32.1535 81.3988 32.0676 81.3988 31.6353C81.3988 31.2031 81.4274 31.1171 81.5853 31.0759C81.7427 31.0347 81.7718 30.9487 81.7718 30.5251C81.7718 30.0854 81.7949 30.0232 81.9582 30.0232C82.124 30.0232 82.1447 29.961 82.1447 29.4638C82.1447 28.9665 82.1654 28.9043 82.3312 28.9043C82.497 28.9043 82.5177 28.8421 82.5177 28.3449C82.5177 27.8476 82.5384 27.7854 82.7042 27.7854C82.874 27.7854 82.8906 27.7232 82.8906 27.0861C82.8906 26.449 82.9072 26.3868 83.0771 26.3868C83.248 26.3868 83.2636 26.3246 83.2636 25.6409C83.2636 24.9572 83.2792 24.895 83.4501 24.895C83.6197 24.895 83.6366 24.8328 83.6366 24.2066C83.6366 23.5965 83.6578 23.5126 83.823 23.4693C83.9888 23.426 84.0095 23.3422 84.0095 22.7126C84.0095 22.1754 84.0403 22.0045 84.1372 22.0045C84.2902 22.0045 84.3801 21.533 84.3815 20.7225C84.3822 20.2959 84.4162 20.1397 84.5084 20.1397C84.632 20.1397 84.7554 19.0841 84.7554 18.0275C84.7554 17.7295 84.7925 17.6222 84.8953 17.6222C85.0061 17.6222 85.0352 17.4888 85.0352 16.9812C85.0352 16.6287 85.0614 16.2091 85.0934 16.0488C85.1441 15.7956 85.1258 15.7574 84.9536 15.7574C84.8176 15.7574 84.7554 15.699 84.7554 15.5709C84.7554 15.4467 84.6933 15.3845 84.569 15.3845C84.4447 15.3845 84.3825 15.3223 84.3825 15.198C84.3825 15.0322 84.3203 15.0115 83.823 15.0115C83.3258 15.0115 83.2636 15.0322 83.2636 15.198C83.2636 15.3664 83.2014 15.3845 82.6226 15.3845C81.808 15.3845 81.3988 15.4663 81.3988 15.6292C81.3988 15.729 81.2024 15.7574 80.513 15.7574C79.6894 15.7574 79.6272 15.7705 79.6272 15.9439C79.6272 16.1148 79.565 16.1304 78.8813 16.1304C78.3083 16.1304 78.1354 16.1603 78.1354 16.2593C78.1354 16.4375 77.8387 16.5006 76.9932 16.502C76.4429 16.5031 76.2706 16.5339 76.2706 16.6316C76.2706 16.7916 75.8635 16.8763 75.0934 16.8763C74.6525 16.8763 74.499 16.9092 74.499 17.004C74.499 17.157 74.0275 17.2468 73.217 17.2482C72.7852 17.249 72.6342 17.2825 72.6342 17.3775C72.6342 17.5376 72.2271 17.6222 71.457 17.6222C71.0105 17.6222 70.8626 17.6546 70.8626 17.7524C70.8626 17.8474 70.6613 17.9004 70.1167 17.9486C69.5721 17.9968 69.3708 18.0497 69.3708 18.1448C69.3708 18.2453 69.201 18.2749 68.6249 18.2749H67.8789V16.4567C67.8789 14.9923 67.8544 14.6385 67.7531 14.6385C67.6076 14.6385 67.506 13.5399 67.506 11.9668C67.506 11.2056 67.4787 11.0022 67.3765 11.0022C67.2768 11.0022 67.2314 10.7439 67.1796 9.88329C67.1279 9.02268 67.0825 8.7644 66.9828 8.7644C66.8885 8.7644 66.8533 8.62911 66.8533 8.26529C66.8533 7.35489 66.7433 6.61988 66.607 6.61988C66.5176 6.61988 66.4803 6.48598 66.4803 6.16533C66.4803 5.54183 66.3868 5.12803 66.2459 5.12803C66.1811 5.12803 66.1006 4.98118 66.0669 4.80169C66.011 4.50351 65.9779 4.47535 65.6836 4.47535C65.3699 4.47535 65.3615 4.46556 65.3615 4.10239V3.72943H64.9885C64.6777 3.72943 64.6155 3.76048 64.6155 3.91591C64.6155 4.07134 64.5533 4.10239 64.2426 4.10239C63.9836 4.10239 63.8696 4.14257 63.8696 4.23404C63.8696 4.31498 63.7259 4.39003 63.4967 4.42873C63.2873 4.46407 63.1237 4.54444 63.1237 4.61176C63.1237 4.7326 62.7302 4.84831 62.3195 4.84831C62.194 4.84831 62.098 4.90369 62.098 4.97623C62.098 5.05344 61.9501 5.12784 61.7251 5.16384C61.4838 5.20244 61.3521 5.27246 61.3521 5.36225C61.3521 5.46192 61.2472 5.50099 60.9792 5.50099C60.6684 5.50099 60.6062 5.53204 60.6062 5.68747C60.6062 5.83069 60.544 5.87395 60.3381 5.87395C59.8751 5.87395 59.4873 5.98547 59.4873 6.11871C59.4873 6.20617 59.3686 6.24691 59.1144 6.24691C58.8036 6.24691 58.7414 6.27796 58.7414 6.4334C58.7414 6.58883 58.6792 6.61988 58.3684 6.61988C58.0577 6.61988 57.9955 6.65092 57.9955 6.80636C57.9955 6.97027 57.9333 6.99284 57.4827 6.99284C57.032 6.99284 56.9698 7.0154 56.9698 7.17932C56.9698 7.33475 56.9076 7.3658 56.5969 7.3658C56.3378 7.3658 56.2239 7.40599 56.2239 7.49745C56.2239 7.57839 56.0802 7.65344 55.8509 7.69214C55.6416 7.72748 55.478 7.80785 55.478 7.87517C55.478 8.00123 55.0806 8.11172 54.6272 8.11172C54.452 8.11172 54.3591 8.15983 54.3591 8.25046C54.3591 8.34025 54.2274 8.41028 53.9861 8.44888C53.781 8.4817 53.6132 8.56086 53.6132 8.62482C53.6132 8.7424 53.2152 8.85764 52.809 8.85764C52.6804 8.85764 52.5875 8.91284 52.5875 8.9893C52.5875 9.07023 52.4439 9.14529 52.2146 9.18398C51.9853 9.22268 51.8416 9.29774 51.8416 9.37867C51.8416 9.47014 51.7277 9.51033 51.4687 9.51033C51.1579 9.51033 51.0957 9.54137 51.0957 9.69681C51.0957 9.84478 51.0331 9.88357 50.7927 9.88459C50.3498 9.88646 50.07 9.98035 50.07 10.1273C50.07 10.2225 49.926 10.2562 49.5188 10.2562H48.9676L48.9045 9.88329C48.8658 9.65401 48.7908 9.51033 48.7099 9.51033C48.6184 9.51033 48.5782 9.39639 48.5782 9.13736C48.5782 8.82659 48.5472 8.7644 48.3917 8.7644C48.2398 8.7644 48.2052 8.70221 48.2052 8.4293C48.2052 8.1727 48.1616 8.08282 48.0188 8.04552C47.8774 8.0085 47.8323 7.91834 47.8323 7.67256C47.8323 7.42678 47.7872 7.33652 47.6458 7.2996C47.5057 7.26295 47.4593 7.17242 47.4593 6.93531C47.4593 6.68207 47.4226 6.61988 47.2728 6.61988C47.1174 6.61988 47.0864 6.55768 47.0864 6.24691C47.0864 5.97885 47.0473 5.87395 46.9476 5.87395C46.8578 5.87395 46.7878 5.7423 46.7492 5.50099C46.7135 5.27787 46.6386 5.12803 46.5627 5.12803C46.4868 5.12803 46.4119 4.97819 46.3762 4.75507C46.3415 4.53726 46.2651 4.38211 46.1929 4.38211C46.1249 4.38211 46.0416 4.23525 46.0079 4.05577C45.9743 3.87628 45.8921 3.72943 45.8255 3.72943C45.7566 3.72943 45.6769 3.56812 45.6411 3.35646C45.6047 3.1408 45.5261 2.9835 45.4547 2.9835C45.3832 2.9835 45.3046 2.82621 45.2682 2.61054C45.2203 2.32746 45.1623 2.23758 45.0269 2.23758C44.9108 2.23758 44.8486 2.17259 44.8486 2.0511C44.8486 1.94854 44.7894 1.86462 44.7169 1.86462C44.636 1.86462 44.5609 1.72094 44.5223 1.49166C44.4836 1.26238 44.4085 1.1187 44.3276 1.1187C44.2551 1.1187 44.1959 1.03478 44.1959 0.932217C44.1959 0.807927 44.1337 0.745736 44.0094 0.745736C43.8585 0.745736 43.8229 0.683545 43.8229 0.419395C43.8229 0.224896 43.7759 0.0896975 43.7064 0.084849C43.6423 0.0802803 43.2228 0.0593004 42.774 0.0383213L41.9581 0V0.233008ZM43.077 3.54295C43.077 3.64588 43.1392 3.72943 43.2158 3.72943C43.3056 3.72943 43.3756 3.86108 43.4142 4.10239C43.4591 4.38351 43.5168 4.47535 43.6484 4.47535C43.7857 4.47535 43.8229 4.54491 43.8229 4.80169C43.8229 5.02062 43.8663 5.12803 43.9546 5.12803C44.035 5.12803 44.1102 5.26966 44.1477 5.49185C44.1898 5.74109 44.2658 5.8705 44.389 5.90267C44.5246 5.9382 44.5689 6.03228 44.5689 6.28477C44.5689 6.52048 44.6104 6.61988 44.7087 6.61988C44.7864 6.61988 44.8486 6.70277 44.8486 6.80636C44.8486 6.93065 44.9108 6.99284 45.0351 6.99284C45.1905 6.99284 45.2216 7.05503 45.2216 7.3658C45.2216 7.67657 45.2526 7.73876 45.408 7.73876C45.556 7.73876 45.5948 7.80132 45.5958 8.04179C45.5977 8.48468 45.6916 8.7644 45.8385 8.7644C45.9268 8.7644 45.9675 8.88198 45.9675 9.13736C45.9675 9.44813 45.9985 9.51033 46.154 9.51033C46.3094 9.51033 46.3404 9.57252 46.3404 9.88329C46.3404 10.1941 46.3715 10.2562 46.5269 10.2562C46.683 10.2562 46.7134 10.3184 46.7134 10.638C46.7134 10.9412 46.7517 11.0297 46.8999 11.0684C47.0573 11.1096 47.0864 11.1956 47.0864 11.6191C47.0864 12.0589 47.1095 12.1211 47.2728 12.1211C47.4283 12.1211 47.4593 12.1832 47.4593 12.494C47.4593 12.7494 47.5 12.867 47.5883 12.867C47.734 12.867 47.8291 13.146 47.831 13.5787C47.8319 13.7918 47.8827 13.884 48.0188 13.9197C48.1669 13.9584 48.2052 14.0468 48.2052 14.3501C48.2052 14.6129 48.2454 14.7318 48.3342 14.7318C48.4811 14.7318 48.575 15.0115 48.5769 15.4544C48.5777 15.6487 48.6242 15.7574 48.7064 15.7574C48.8396 15.7574 48.9512 16.1452 48.9512 16.6082C48.9512 16.7731 49.0004 16.8763 49.079 16.8763C49.166 16.8763 49.227 17.0549 49.27 17.4358C49.3122 17.8081 49.3749 17.9952 49.4576 17.9952C49.5444 17.9952 49.6018 18.2069 49.6475 18.6945C49.6952 19.2043 49.7487 19.3938 49.8449 19.3938C49.928 19.3938 49.9768 19.4929 49.9768 19.6619C49.9768 20.1249 50.0883 20.5127 50.2216 20.5127C50.3191 20.5127 50.3498 20.6821 50.3498 21.2207C50.3498 21.8503 50.3705 21.9341 50.5363 21.9775C50.6976 22.0197 50.7227 22.1047 50.7227 22.6098C50.7227 23.3696 50.808 23.7761 50.9675 23.7761C51.0638 23.7761 51.0957 23.9353 51.0957 24.4171C51.0957 25.2317 51.1776 25.6409 51.3404 25.6409C51.4402 25.6409 51.4687 25.8373 51.4687 26.5267C51.4687 27.3503 51.4556 27.4125 51.2822 27.4125C51.1796 27.4125 51.0957 27.3544 51.0957 27.2835C51.0957 27.2126 51.0118 27.1326 50.9092 27.1057C50.8066 27.0789 50.7227 26.995 50.7227 26.9192C50.7227 26.8435 50.6388 26.7596 50.5363 26.7327C50.4337 26.706 50.3498 26.6221 50.3498 26.5463C50.3498 26.4706 50.2659 26.3866 50.1633 26.3598C50.0607 26.333 49.9768 26.2488 49.9768 26.1728C49.9768 26.0887 49.8492 26.0107 49.6505 25.9734C49.4551 25.9368 49.3241 25.8577 49.3241 25.7766C49.3241 25.701 49.2376 25.6409 49.1289 25.6409C49.0121 25.6409 48.9141 25.566 48.885 25.4544C48.8483 25.3143 48.7578 25.2679 48.5207 25.2679C48.2674 25.2679 48.2052 25.2312 48.2052 25.0815C48.2052 24.926 48.1431 24.895 47.8323 24.895C47.5215 24.895 47.4593 24.8639 47.4593 24.7085C47.4593 24.5427 47.3971 24.522 46.8999 24.522C46.4026 24.522 46.3404 24.5013 46.3404 24.3355C46.3404 24.1646 46.2782 24.1491 45.5945 24.1491C45.0216 24.1491 44.8486 24.1191 44.8486 24.0201C44.8486 23.8196 44.5386 23.7787 43.0071 23.7774C41.6469 23.7762 41.5852 23.7842 41.5852 23.9626C41.5852 24.1318 41.5226 24.1492 40.9092 24.1504C40.109 24.1519 39.8136 24.2173 39.8136 24.3931C39.8136 24.4838 39.6891 24.522 39.394 24.522C39.089 24.522 38.9744 24.559 38.9744 24.6577C38.9744 24.7388 38.8434 24.8179 38.6481 24.8545C38.4686 24.8882 38.3218 24.9703 38.3218 25.037C38.3218 25.1059 38.1605 25.1855 37.9488 25.2213C37.7212 25.2597 37.5758 25.3353 37.5758 25.4149C37.5758 25.4951 37.4321 25.5685 37.2029 25.6051C36.9218 25.65 36.8299 25.7078 36.8299 25.8393C36.8299 25.9517 36.7635 26.0139 36.6434 26.0139C36.5409 26.0139 36.457 26.0719 36.457 26.1428C36.457 26.2138 36.373 26.2938 36.2705 26.3206C36.1679 26.3474 36.084 26.4313 36.084 26.5071C36.084 26.5828 36.0001 26.6667 35.8975 26.6936C35.795 26.7203 35.711 26.8043 35.711 26.8801C35.711 26.9558 35.6271 27.0397 35.5246 27.0665C35.422 27.0933 35.3381 27.1822 35.3381 27.2638C35.3381 27.3456 35.2712 27.4125 35.1895 27.4125C35.1078 27.4125 35.0189 27.4964 34.9922 27.5989C34.9653 27.7015 34.8853 27.7854 34.8143 27.7854C34.7435 27.7854 34.6854 27.8693 34.6854 27.9719C34.6854 28.0962 34.6232 28.1584 34.4989 28.1584C34.3746 28.1584 34.3124 28.2206 34.3124 28.3449C34.3124 28.4692 34.2502 28.5313 34.126 28.5313C33.9527 28.5313 33.9395 28.4692 33.9395 27.6565C33.9395 26.8599 33.9562 26.7771 34.126 26.7327C34.2961 26.6883 34.3124 26.6056 34.3124 25.7895C34.3124 25.0926 34.3408 24.895 34.4406 24.895C34.6035 24.895 34.6854 24.4857 34.6854 23.6712C34.6854 23.1876 34.7171 23.0302 34.8143 23.0302C34.9817 23.0302 35.0555 22.7395 35.0571 22.0745C35.058 21.6823 35.0928 21.5383 35.1866 21.5383C35.3332 21.5383 35.4313 21.1412 35.4313 20.5476C35.4313 20.2637 35.4703 20.1397 35.5595 20.1397C35.7062 20.1397 35.8043 19.7426 35.8043 19.149C35.8043 18.8548 35.8419 18.7411 35.9395 18.7411C36.0356 18.7411 36.093 18.5792 36.1381 18.1817C36.1812 17.8008 36.2421 17.6222 36.3291 17.6222C36.4077 17.6222 36.457 17.519 36.457 17.3542C36.457 16.8911 36.5685 16.5033 36.7017 16.5033C36.7808 16.5033 36.8299 16.4006 36.8299 16.2353C36.8299 15.7723 36.9414 15.3845 37.0747 15.3845C37.1569 15.3845 37.2034 15.2757 37.2042 15.0814C37.2061 14.6385 37.2999 14.3588 37.4469 14.3588C37.5357 14.3588 37.5758 14.2399 37.5758 13.9771C37.5758 13.6739 37.6142 13.5854 37.7623 13.5467C37.9197 13.5055 37.9488 13.4195 37.9488 12.9959C37.9488 12.5562 37.9719 12.494 38.1353 12.494C38.2898 12.494 38.3218 12.4318 38.3218 12.132C38.3218 11.8482 38.3621 11.7593 38.5083 11.7211C38.6667 11.6797 38.6947 11.5939 38.6947 11.1508C38.6947 10.6914 38.7169 10.6292 38.8812 10.6292C39.031 10.6292 39.0677 10.567 39.0677 10.3138C39.0677 10.0767 39.114 9.98613 39.2542 9.94949C39.4023 9.91079 39.4407 9.82231 39.4407 9.51909C39.4407 9.24329 39.4792 9.13736 39.5794 9.13736C39.6692 9.13736 39.7392 9.00571 39.7778 8.7644C39.8135 8.54128 39.8884 8.39144 39.9643 8.39144C40.0402 8.39144 40.1151 8.2416 40.1508 8.01848C40.1856 7.80067 40.2619 7.64552 40.3341 7.64552C40.4021 7.64552 40.4854 7.49867 40.5191 7.31918C40.5541 7.13223 40.6356 6.99284 40.7097 6.99284C40.7987 6.99284 40.8393 6.87591 40.8393 6.61988C40.8393 6.31479 40.8717 6.24691 41.0175 6.24691C41.1529 6.24691 41.211 6.15703 41.2588 5.87395C41.2946 5.6623 41.3743 5.50099 41.4432 5.50099C41.5098 5.50099 41.592 5.35414 41.6256 5.17465C41.6593 4.99516 41.7426 4.84831 41.8106 4.84831C41.8828 4.84831 41.9592 4.69316 41.9939 4.47535C42.0325 4.23404 42.1026 4.10239 42.1924 4.10239C42.2711 4.10239 42.3311 4.01782 42.3311 3.90714C42.3311 3.79041 42.406 3.69241 42.5176 3.66322C42.6201 3.63637 42.7041 3.55637 42.7041 3.48542C42.7041 3.41455 42.788 3.35646 42.8905 3.35646C43.0148 3.35646 43.077 3.41866 43.077 3.54295ZM64.2426 7.17932C64.2426 7.67657 64.2633 7.73876 64.4291 7.73876C64.602 7.73876 64.6156 7.80132 64.6168 8.60123C64.6182 9.58296 64.6751 9.88329 64.8596 9.88329C64.9632 9.88329 64.9885 10.1394 64.9885 11.1887C64.9885 12.2379 65.0138 12.494 65.1174 12.494C65.327 12.494 65.3588 12.8097 65.3602 14.895C65.3612 16.5009 65.3854 16.8763 65.4881 16.8763C65.676 16.8763 65.7344 17.6931 65.7344 20.3262C65.7344 22.9593 65.676 23.7761 65.4881 23.7761C65.3856 23.7761 65.3615 24.138 65.3615 25.6759C65.3615 27.7149 65.3177 28.1584 65.1167 28.1584C65.014 28.1584 64.9885 28.4183 64.9885 29.4638C64.9885 30.513 64.9632 30.7691 64.8596 30.7691C64.6751 30.7691 64.6182 31.0694 64.6168 32.0512C64.6156 32.8511 64.602 32.9136 64.4291 32.9136C64.255 32.9136 64.2426 32.9758 64.2426 33.846C64.2426 34.7163 64.2302 34.7785 64.0561 34.7785C63.8862 34.7785 63.8696 34.8406 63.8696 35.4778C63.8696 36.0089 63.8388 36.1771 63.7414 36.1771C63.591 36.1771 63.4967 36.5769 63.4967 37.2144C63.4967 37.5379 63.4597 37.6689 63.3684 37.6689C63.2352 37.6689 63.1237 38.0567 63.1237 38.5197C63.1237 38.6846 63.0745 38.7878 62.9959 38.7878C62.9089 38.7878 62.8479 38.9663 62.8048 39.3472C62.7598 39.7447 62.7023 39.9067 62.6062 39.9067C62.526 39.9067 62.471 39.9968 62.471 40.1281C62.471 40.5482 62.3541 40.9323 62.2263 40.9323C62.1472 40.9323 62.098 41.0351 62.098 41.2004C62.098 41.6634 61.9865 42.0512 61.8533 42.0512C61.7659 42.0512 61.7251 42.1699 61.7251 42.4242C61.7251 42.7349 61.694 42.7971 61.5386 42.7971C61.3906 42.7971 61.3518 42.8597 61.3508 43.1001C61.349 43.543 61.2551 43.8228 61.1081 43.8228C61.0174 43.8228 60.9792 43.9472 60.9792 44.2423C60.9792 44.5997 60.9516 44.6619 60.7927 44.6619C60.6373 44.6619 60.6062 44.7241 60.6062 45.0349C60.6062 45.3457 60.5752 45.4078 60.4197 45.4078C60.2558 45.4078 60.2332 45.47 60.2332 45.9207C60.2332 46.3713 60.2107 46.4335 60.0468 46.4335C59.897 46.4335 59.8603 46.4957 59.8603 46.7489C59.8603 46.986 59.8139 47.0766 59.6738 47.1132C59.5324 47.1501 59.4873 47.2404 59.4873 47.4862C59.4873 47.7319 59.4422 47.8221 59.3008 47.8591C59.1892 47.8883 59.1144 47.9863 59.1144 48.1031C59.1144 48.2105 59.0552 48.2983 58.9827 48.2983C58.9018 48.2983 58.8267 48.442 58.788 48.6713C58.7504 48.8937 58.6736 49.0442 58.5975 49.0442C58.5257 49.0442 58.4434 49.1866 58.4089 49.3706C58.3752 49.55 58.2931 49.6969 58.2264 49.6969C58.1575 49.6969 58.0779 49.8582 58.0421 50.0699C58.0034 50.2991 57.9283 50.4428 57.8474 50.4428C57.775 50.4428 57.7158 50.5267 57.7158 50.6293C57.7158 50.7508 57.6536 50.8158 57.5375 50.8158C57.4021 50.8158 57.344 50.9057 57.2962 51.1887C57.2575 51.418 57.1824 51.5617 57.1015 51.5617C57.029 51.5617 56.9698 51.6456 56.9698 51.7482C56.9698 51.8688 56.9076 51.9347 56.7937 51.9347C56.6663 51.9347 56.6007 52.0248 56.5564 52.261C56.5198 52.4563 56.4407 52.5873 56.3596 52.5873C56.2771 52.5873 56.2239 52.6786 56.2239 52.8204C56.2239 52.9914 56.1742 53.0536 56.0374 53.0536C55.9131 53.0536 55.8509 53.1157 55.8509 53.24C55.8509 53.3426 55.7899 53.4265 55.7153 53.4265C55.6342 53.4265 55.5551 53.5575 55.5185 53.7529C55.4742 53.989 55.4085 54.0792 55.2812 54.0792C55.1672 54.0792 55.105 54.145 55.105 54.2657C55.105 54.39 55.0428 54.4522 54.9185 54.4522C54.7943 54.4522 54.7321 54.5143 54.7321 54.6386C54.7321 54.7412 54.6729 54.8251 54.6004 54.8251C54.5195 54.8251 54.4444 54.9688 54.4057 55.1981C54.3579 55.4812 54.2998 55.571 54.1644 55.571C54.0663 55.571 53.9861 55.6291 53.9861 55.7C53.9861 55.7709 53.9022 55.8509 53.7997 55.8778C53.6881 55.907 53.6132 56.005 53.6132 56.1217C53.6132 56.2291 53.5551 56.317 53.4842 56.317C53.4133 56.317 53.3333 56.4009 53.3064 56.5034C53.2797 56.606 53.1957 56.6899 53.1199 56.6899C53.0442 56.6899 52.9603 56.7738 52.9335 56.8764C52.9067 56.979 52.8178 57.0629 52.7362 57.0629C52.6497 57.0629 52.5875 57.1409 52.5875 57.2494C52.5875 57.3737 52.5253 57.4358 52.4011 57.4358C52.2768 57.4358 52.2146 57.498 52.2146 57.6223C52.2146 57.7466 52.1524 57.8088 52.0281 57.8088C51.9245 57.8088 51.8416 57.871 51.8416 57.9487C51.8416 58.0263 51.7587 58.0885 51.6551 58.0885C51.5308 58.0885 51.4687 58.1507 51.4687 58.275C51.4687 58.3834 51.4065 58.4615 51.32 58.4615C51.2383 58.4615 51.1495 58.5454 51.1227 58.648C51.0959 58.7505 51.012 58.8344 50.9362 58.8344C50.8604 58.8344 50.7765 58.9184 50.7498 59.0209C50.7229 59.1235 50.639 59.2074 50.5633 59.2074C50.4875 59.2074 50.4036 59.2913 50.3768 59.3939C50.3498 59.4971 50.2496 59.5804 50.1524 59.5804C50.039 59.5804 49.9768 59.6464 49.9768 59.7669C49.9768 59.8704 49.9146 59.9533 49.8369 59.9533C49.7593 59.9533 49.6971 60.0362 49.6971 60.1398C49.6971 60.2766 49.6349 60.3263 49.464 60.3263C49.2931 60.3263 49.2309 60.376 49.2309 60.5128C49.2309 60.6371 49.1687 60.6993 49.0444 60.6993C48.9408 60.6993 48.8579 60.7614 48.8579 60.8391C48.8579 60.916 48.7911 60.979 48.7093 60.979C48.6276 60.979 48.539 61.0619 48.5126 61.1631C48.4812 61.283 48.3541 61.3681 48.1484 61.4067C47.9216 61.4492 47.8323 61.5157 47.8323 61.642C47.8323 61.756 47.7665 61.8181 47.6458 61.8181C47.5422 61.8181 47.4593 61.8803 47.4593 61.958C47.4593 62.0357 47.3764 62.0979 47.2728 62.0979C47.1693 62.0979 47.0864 62.0357 47.0864 61.958C47.0864 61.8803 47.1693 61.8181 47.2728 61.8181C47.4283 61.8181 47.4593 61.7559 47.4593 61.4452C47.4593 61.1344 47.4904 61.0722 47.6458 61.0722C47.7701 61.0722 47.8323 61.01 47.8323 60.8857C47.8323 60.7832 47.8915 60.6993 47.9639 60.6993C48.0449 60.6993 48.1199 60.5556 48.1586 60.3263C48.2065 60.0432 48.2645 59.9533 48.3999 59.9533C48.5458 59.9533 48.5782 59.8855 48.5782 59.5804C48.5782 59.2696 48.6093 59.2074 48.7647 59.2074C48.9156 59.2074 48.9512 59.1452 48.9512 58.8811C48.9512 58.6621 48.9945 58.5547 49.0828 58.5547C49.1637 58.5547 49.2388 58.411 49.2775 58.1818C49.314 57.9661 49.3926 57.8088 49.464 57.8088C49.5354 57.8088 49.614 57.6515 49.6505 57.4358C49.6869 57.2202 49.7655 57.0629 49.8369 57.0629C49.9084 57.0629 49.987 56.9056 50.0234 56.6899C50.0587 56.4812 50.1391 56.317 50.2062 56.317C50.2738 56.317 50.3519 56.1545 50.3856 55.944C50.4242 55.7027 50.4942 55.571 50.584 55.571C50.6837 55.571 50.7227 55.4661 50.7227 55.1981C50.7227 54.8873 50.7538 54.8251 50.9092 54.8251C51.0731 54.8251 51.0957 54.7629 51.0957 54.3123C51.0957 53.8617 51.1183 53.7995 51.2822 53.7995C51.4411 53.7995 51.4687 53.7373 51.4687 53.3799C51.4687 53.0225 51.4963 52.9603 51.6551 52.9603C51.819 52.9603 51.8416 52.8981 51.8416 52.4475C51.8416 51.9969 51.8642 51.9347 52.0281 51.9347C52.1939 51.9347 52.2146 51.8725 52.2146 51.3752C52.2146 50.9627 52.2482 50.8158 52.3428 50.8158C52.4885 50.8158 52.5875 50.4193 52.5875 49.836C52.5875 49.5173 52.6244 49.4293 52.774 49.3901C52.9348 49.3481 52.9605 49.263 52.9605 48.7733C52.9605 48.3533 52.994 48.2051 53.0887 48.2051C53.2458 48.2051 53.3335 47.8002 53.3335 47.0745C53.3335 46.6635 53.3665 46.5267 53.4659 46.5267C53.5669 46.5267 53.6138 46.3065 53.6644 45.5943C53.7094 44.9582 53.7667 44.6619 53.8443 44.6619C53.955 44.6619 54.0794 43.5438 54.0794 42.5497C54.0794 42.2728 54.119 42.1444 54.2045 42.1444C54.3025 42.1444 54.3429 41.7662 54.3907 40.3962C54.4243 39.4347 54.452 38.1969 54.4521 37.6456C54.4523 36.8169 54.4766 36.6433 54.5922 36.6433C54.7056 36.6433 54.7321 36.493 54.7321 35.8507C54.7321 35.2388 54.7027 35.0582 54.6033 35.0582C54.498 35.0582 54.462 34.5308 54.4057 32.1677C54.3494 29.8046 54.3134 29.2773 54.2081 29.2773C54.1163 29.2773 54.0794 29.1476 54.0794 28.8254C54.0794 27.7741 53.9573 26.6665 53.8415 26.6665C53.7587 26.6665 53.7054 26.3549 53.6578 25.5943C53.6067 24.7771 53.5602 24.522 53.4621 24.522C53.3662 24.522 53.3335 24.3709 53.3335 23.9276C53.3335 23.1575 53.2488 22.7505 53.0887 22.7505C52.9949 22.7505 52.9601 22.6065 52.9592 22.2143C52.9576 21.5492 52.8839 21.2586 52.7165 21.2586C52.6244 21.2586 52.5875 21.1289 52.5875 20.8041C52.5875 20.1666 52.4932 19.7668 52.3428 19.7668C52.2482 19.7668 52.2146 19.6198 52.2146 19.2073C52.2146 18.7101 52.1939 18.6479 52.0281 18.6479C51.8582 18.6479 51.8416 18.5857 51.8416 17.9486C51.8416 17.3115 51.825 17.2493 51.6551 17.2493C51.4894 17.2493 51.4687 17.1871 51.4687 16.6898C51.4687 16.1926 51.448 16.1304 51.2822 16.1304C51.1164 16.1304 51.0957 16.0682 51.0957 15.5709C51.0957 15.0737 51.075 15.0115 50.9092 15.0115C50.7459 15.0115 50.7227 14.9493 50.7227 14.5096C50.7227 14.086 50.6936 14 50.5363 13.9588C50.3881 13.9201 50.3498 13.8316 50.3498 13.5284C50.3498 13.2513 50.3114 13.1467 50.2099 13.1467C50.1122 13.1467 50.07 13.0482 50.07 12.8204C50.07 12.5079 50.0843 12.494 50.4052 12.494C50.6618 12.494 50.7516 12.4504 50.7889 12.3075C50.8301 12.1501 50.9161 12.1211 51.3397 12.1211C51.7794 12.1211 51.8416 12.0979 51.8416 11.9346C51.8416 11.7791 51.9038 11.7481 52.2146 11.7481C52.5253 11.7481 52.5875 11.717 52.5875 11.5616C52.5875 11.4062 52.6497 11.3751 52.9605 11.3751C53.2159 11.3751 53.3335 11.3345 53.3335 11.2462C53.3335 11.0992 53.6132 11.0053 54.0561 11.0035C54.2965 11.0025 54.3591 10.9637 54.3591 10.8157C54.3591 10.6568 54.4213 10.6292 54.7787 10.6292C55.0738 10.6292 55.1983 10.591 55.1983 10.5003C55.1983 10.3533 55.478 10.2594 55.9209 10.2576C56.1613 10.2565 56.2239 10.2177 56.2239 10.0698C56.2239 9.91434 56.2861 9.88329 56.5969 9.88329C56.8649 9.88329 56.9698 9.84422 56.9698 9.74454C56.9698 9.65475 57.1015 9.58473 57.3428 9.54613C57.5479 9.51331 57.7158 9.43415 57.7158 9.37019C57.7158 9.25261 58.1137 9.13736 58.52 9.13736C58.6485 9.13736 58.7414 9.08217 58.7414 9.00571C58.7414 8.92478 58.8851 8.84972 59.1144 8.81102C59.3436 8.77233 59.4873 8.69727 59.4873 8.61634C59.4873 8.52487 59.6013 8.48468 59.8603 8.48468C60.1711 8.48468 60.2332 8.45363 60.2332 8.2982C60.2332 8.15498 60.2954 8.11172 60.5013 8.11172C60.9643 8.11172 61.3521 8.00021 61.3521 7.86696C61.3521 7.78193 61.465 7.73876 61.6872 7.73876C61.9438 7.73876 62.0337 7.69512 62.071 7.55228C62.1092 7.40617 62.1982 7.3658 62.4819 7.3658C62.7818 7.3658 62.844 7.33382 62.844 7.17932C62.844 7.0154 62.9062 6.99284 63.3568 6.99284C63.8074 6.99284 63.8696 6.97027 63.8696 6.80636C63.8696 6.68207 63.9318 6.61988 64.0561 6.61988C64.2219 6.61988 64.2426 6.68207 64.2426 7.17932ZM20.0467 7.494C20.0467 7.62724 20.4345 7.73876 20.8975 7.73876C21.1034 7.73876 21.1656 7.78202 21.1656 7.92524C21.1656 8.0886 21.2277 8.11172 21.6675 8.11172C22.0911 8.11172 22.177 8.14081 22.2182 8.2982C22.2569 8.44636 22.3454 8.48468 22.6486 8.48468C22.9104 8.48468 23.0304 8.52496 23.0304 8.61289C23.0304 8.74072 23.4145 8.85764 23.8346 8.85764C23.9631 8.85764 24.056 8.91284 24.056 8.9893C24.056 9.07023 24.1997 9.14529 24.429 9.18398C24.6582 9.22268 24.8019 9.29774 24.8019 9.37867C24.8019 9.46156 24.9013 9.51033 25.07 9.51033C25.533 9.51033 25.9208 9.62184 25.9208 9.75508C25.9208 9.84012 26.0337 9.88329 26.2559 9.88329C26.5125 9.88329 26.6024 9.92692 26.6397 10.0698C26.6809 10.2272 26.7669 10.2562 27.1905 10.2562C27.6302 10.2562 27.6924 10.2794 27.6924 10.4427C27.6924 10.6085 27.7546 10.6292 28.2518 10.6292C28.7491 10.6292 28.8113 10.6499 28.8113 10.8157C28.8113 10.9711 28.8734 11.0022 29.1842 11.0022C29.495 11.0022 29.5572 11.0332 29.5572 11.1887C29.5572 11.3544 29.6194 11.3751 30.1166 11.3751C30.6139 11.3751 30.6761 11.3958 30.6761 11.5616C30.6761 11.717 30.7383 11.7481 31.049 11.7481C31.3598 11.7481 31.422 11.7791 31.422 11.9346C31.422 12.0979 31.4842 12.1211 31.9239 12.1211C32.3475 12.1211 32.4335 12.1501 32.4747 12.3075C32.5161 12.466 32.6018 12.494 33.0449 12.494C33.5043 12.494 33.5665 12.5162 33.5665 12.6805C33.5665 12.8359 33.6287 12.867 33.9395 12.867C34.1937 12.867 34.3124 12.9078 34.3124 12.9952C34.3124 13.123 34.6966 13.2399 35.1166 13.2399C35.2513 13.2399 35.3381 13.2948 35.3381 13.3798C35.3381 13.4567 35.2751 13.5197 35.1982 13.5197C35.099 13.5197 35.058 13.6212 35.0571 13.8693C35.0553 14.3562 34.9662 14.6385 34.8143 14.6385C34.7189 14.6385 34.6854 14.7838 34.6854 15.198C34.6854 15.6952 34.6647 15.7574 34.4989 15.7574C34.3346 15.7574 34.3124 15.8196 34.3124 16.279C34.3124 16.7221 34.2844 16.8079 34.126 16.8493C33.9661 16.8911 33.9395 16.9764 33.9395 17.4467C33.9395 17.933 33.9183 17.9952 33.753 17.9952C33.5831 17.9952 33.5665 18.0574 33.5665 18.6945C33.5665 19.3316 33.5499 19.3938 33.38 19.3938C33.2143 19.3938 33.1936 19.456 33.1936 19.9532C33.1936 20.3657 33.1599 20.5127 33.0653 20.5127C32.9053 20.5127 32.8206 20.9198 32.8206 21.6898C32.8206 22.132 32.7878 22.2842 32.6924 22.2842C32.542 22.2842 32.4476 22.6841 32.4476 23.3215C32.4476 23.6442 32.4105 23.7761 32.32 23.7761C32.167 23.7761 32.0771 24.2476 32.0757 25.0581C32.0749 25.4847 32.0409 25.6409 31.9488 25.6409C31.8252 25.6409 31.7017 26.6965 31.7017 27.7532C31.7017 28.0512 31.6647 28.1584 31.5618 28.1584C31.4502 28.1584 31.422 28.2967 31.422 28.8431C31.422 30.387 31.3039 31.7948 31.1745 31.7948C31.0713 31.7948 31.049 32.5134 31.049 35.8507C31.049 39.1894 31.0712 39.9067 31.1746 39.9067C31.3082 39.9067 31.4207 41.2126 31.4215 42.7738C31.4219 43.3711 31.4512 43.543 31.5526 43.543C31.6532 43.543 31.6987 43.7898 31.7503 44.6153C31.8014 45.4325 31.8479 45.6876 31.946 45.6876C32.0378 45.6876 32.0747 45.8178 32.0747 46.1421C32.0747 46.7796 32.169 47.1794 32.3194 47.1794C32.4107 47.1794 32.4476 47.3104 32.4476 47.634C32.4476 48.2714 32.542 48.6713 32.6924 48.6713C32.7847 48.6713 32.821 48.8082 32.8219 49.1608C32.8235 49.781 32.9006 50.0699 33.0646 50.0699C33.1601 50.0699 33.1936 50.2151 33.1936 50.6293C33.1936 51.1266 33.2143 51.1887 33.38 51.1887C33.5458 51.1887 33.5665 51.2509 33.5665 51.7482C33.5665 52.2454 33.5872 52.3076 33.753 52.3076C33.9169 52.3076 33.9395 52.3698 33.9395 52.8204C33.9395 53.2711 33.962 53.3333 34.126 53.3333C34.2848 53.3333 34.3124 53.3955 34.3124 53.7529C34.3124 54.048 34.3507 54.1724 34.4414 54.1724C34.5883 54.1724 34.6822 54.4522 34.6841 54.895C34.6851 55.1355 34.7239 55.1981 34.8719 55.1981C35.0273 55.1981 35.0584 55.2603 35.0584 55.571C35.0584 55.8391 35.0974 55.944 35.1971 55.944C35.2869 55.944 35.3569 56.0757 35.3955 56.317C35.4312 56.5401 35.5061 56.6899 35.582 56.6899C35.6579 56.6899 35.7328 56.8398 35.7685 57.0629C35.8015 57.2693 35.8806 57.4358 35.9457 57.4358C36.0103 57.4358 36.0908 57.5827 36.1245 57.7622C36.1581 57.9417 36.2414 58.0885 36.3095 58.0885C36.3816 58.0885 36.458 58.2437 36.4928 58.4615C36.5285 58.6846 36.6034 58.8344 36.6792 58.8344C36.7551 58.8344 36.83 58.9843 36.8657 59.2074C36.9024 59.4366 36.9758 59.5804 37.0559 59.5804C37.1356 59.5804 37.2111 59.7257 37.2495 59.9533C37.2882 60.1826 37.3633 60.3263 37.4442 60.3263C37.5166 60.3263 37.5758 60.4102 37.5758 60.5128C37.5758 60.6371 37.638 60.6993 37.7623 60.6993C37.9178 60.6993 37.9488 60.7614 37.9488 61.0722C37.9488 61.383 37.9799 61.4452 38.1353 61.4452C38.2596 61.4452 38.3218 61.5074 38.3218 61.6317C38.3218 61.7342 38.3799 61.8181 38.4507 61.8181C38.5706 61.8181 38.6905 62.0829 38.6934 62.3543C38.6942 62.4184 38.6108 62.4708 38.5083 62.4708C38.4047 62.4708 38.3218 62.4086 38.3218 62.331C38.3218 62.254 38.2549 62.1911 38.1731 62.1911C38.0915 62.1911 38.0036 62.1111 37.9781 62.0134C37.9485 61.9002 37.8163 61.814 37.6139 61.7761C37.4254 61.7407 37.2961 61.6613 37.2961 61.5808C37.2961 61.5053 37.2096 61.4452 37.1009 61.4452C36.9841 61.4452 36.8861 61.3703 36.857 61.2587C36.8299 61.1555 36.7298 61.0722 36.6325 61.0722C36.5192 61.0722 36.457 61.0062 36.457 60.8857C36.457 60.7614 36.3948 60.6993 36.2705 60.6993C36.1462 60.6993 36.084 60.6371 36.084 60.5128C36.084 60.3618 36.0218 60.3263 35.7577 60.3263C35.4935 60.3263 35.4313 60.2908 35.4313 60.1398C35.4313 60.0155 35.3691 59.9533 35.2448 59.9533C35.1205 59.9533 35.0584 59.8911 35.0584 59.7669C35.0584 59.6426 34.9962 59.5804 34.8719 59.5804C34.7476 59.5804 34.6854 59.5182 34.6854 59.3939C34.6854 59.2696 34.6232 59.2074 34.4989 59.2074C34.3746 59.2074 34.3124 59.1452 34.3124 59.0209C34.3124 58.8966 34.2502 58.8344 34.126 58.8344C34.0017 58.8344 33.9395 58.7723 33.9395 58.648C33.9395 58.5237 33.8773 58.4615 33.753 58.4615C33.6287 58.4615 33.5665 58.3993 33.5665 58.275C33.5665 58.1507 33.5043 58.0885 33.38 58.0885C33.2764 58.0885 33.1936 58.0263 33.1936 57.9487C33.1936 57.8717 33.1267 57.8088 33.0449 57.8088C32.9632 57.8088 32.8744 57.7249 32.8476 57.6223C32.8208 57.5198 32.7369 57.4358 32.6612 57.4358C32.5853 57.4358 32.5014 57.3519 32.4747 57.2494C32.4478 57.1468 32.3639 57.0629 32.2882 57.0629C32.2124 57.0629 32.1285 56.979 32.1017 56.8764C32.0749 56.7738 31.9949 56.6899 31.9239 56.6899C31.853 56.6899 31.7949 56.606 31.7949 56.5034C31.7949 56.3792 31.7328 56.317 31.6085 56.317C31.4842 56.317 31.422 56.2548 31.422 56.1305C31.422 56.0062 31.3598 55.944 31.2355 55.944C31.1112 55.944 31.049 55.8818 31.049 55.7575C31.049 55.6369 30.9868 55.571 30.8729 55.571C30.7455 55.571 30.6799 55.4809 30.6356 55.2447C30.599 55.0494 30.5199 54.9184 30.4388 54.9184C30.3632 54.9184 30.3031 54.8318 30.3031 54.7231C30.3031 54.6064 30.2282 54.5084 30.1166 54.4792C30.0134 54.4522 29.9301 54.352 29.9301 54.2548C29.9301 54.1414 29.8641 54.0792 29.7437 54.0792C29.6194 54.0792 29.5572 54.017 29.5572 53.8927C29.5572 53.7684 29.495 53.7062 29.3707 53.7062C29.2197 53.7062 29.1842 53.644 29.1842 53.3799C29.1842 53.1157 29.1487 53.0536 28.9977 53.0536C28.8773 53.0536 28.8113 52.9914 28.8113 52.878C28.8113 52.7807 28.728 52.6806 28.6248 52.6536C28.5132 52.6244 28.4383 52.5264 28.4383 52.4096C28.4383 52.3009 28.3782 52.2144 28.3026 52.2144C28.2215 52.2144 28.1424 52.0834 28.1058 51.888C28.0615 51.6519 27.9959 51.5617 27.8685 51.5617C27.7546 51.5617 27.6924 51.4959 27.6924 51.3752C27.6924 51.2727 27.6332 51.1887 27.5607 51.1887C27.4798 51.1887 27.4047 51.0451 27.366 50.8158C27.3273 50.5865 27.2523 50.4428 27.1713 50.4428C27.0989 50.4428 27.0397 50.3589 27.0397 50.2563C27.0397 50.1321 26.9775 50.0699 26.8532 50.0699C26.7013 50.0699 26.6667 50.0077 26.6667 49.7348C26.6667 49.4782 26.6231 49.3883 26.4802 49.351C26.3401 49.3143 26.2938 49.2238 26.2938 48.9867C26.2938 48.7406 26.2554 48.6713 26.1192 48.6713C25.9877 48.6713 25.9299 48.5794 25.885 48.2983C25.8464 48.057 25.7764 47.9253 25.6866 47.9253C25.6079 47.9253 25.5478 47.8408 25.5478 47.7301C25.5478 47.6133 25.473 47.5154 25.3614 47.4862C25.2212 47.4495 25.1749 47.359 25.1749 47.1219C25.1749 46.8686 25.1381 46.8064 24.9884 46.8064C24.833 46.8064 24.8019 46.7443 24.8019 46.4335C24.8019 46.1654 24.7629 46.0605 24.6632 46.0605C24.5734 46.0605 24.5034 45.9289 24.4648 45.6876C24.4311 45.477 24.353 45.3146 24.2854 45.3146C24.2183 45.3146 24.1379 45.1504 24.1026 44.9416C24.067 44.7309 23.9871 44.5687 23.9188 44.5687C23.7794 44.5687 23.6861 44.2813 23.6843 43.8461C23.6835 43.6478 23.6375 43.543 23.5514 43.543C23.4705 43.543 23.3954 43.3994 23.3567 43.1701C23.3214 42.9608 23.241 42.7971 23.1737 42.7971C23.0476 42.7971 22.9371 42.3997 22.9371 41.9463C22.9371 41.7776 22.8884 41.6782 22.8055 41.6782C22.7245 41.6782 22.6495 41.5345 22.6108 41.3053C22.5721 41.076 22.497 40.9323 22.4161 40.9323C22.3332 40.9323 22.2844 40.8329 22.2844 40.6642C22.2844 40.2012 22.1729 39.8134 22.0397 39.8134C21.9462 39.8134 21.9115 39.6723 21.9115 39.2918C21.9115 38.8488 21.8834 38.763 21.725 38.7216C21.5676 38.6804 21.5385 38.5944 21.5385 38.1708C21.5385 37.7311 21.5154 37.6689 21.352 37.6689C21.182 37.6689 21.1656 37.6067 21.1656 36.9608C21.1656 36.3313 21.1449 36.2474 20.9791 36.2041C20.8138 36.1608 20.7926 36.0769 20.7926 35.4668C20.7926 34.8406 20.7757 34.7785 20.6061 34.7785C20.4352 34.7785 20.4196 34.7163 20.4196 34.0325C20.4196 33.4596 20.3897 33.2866 20.2907 33.2866C20.1125 33.2866 20.0495 32.9899 20.048 32.1444C20.0469 31.5941 20.0161 31.4218 19.9185 31.4218C19.7482 31.4218 19.6737 31.0067 19.6737 30.0582C19.6737 29.4578 19.6441 29.2773 19.5455 29.2773C19.361 29.2773 19.3007 28.85 19.3007 27.5407C19.3007 26.6341 19.2738 26.3868 19.1749 26.3868C19.0094 26.3868 18.9278 25.2435 18.9278 22.9226C18.9278 21.4228 18.9073 21.1654 18.7879 21.1654C18.6676 21.1654 18.6481 20.8649 18.6481 19.0208C18.6481 17.1767 18.6676 16.8763 18.7879 16.8763C18.9072 16.8763 18.9278 16.6241 18.9278 15.1657C18.9278 12.8892 19.0103 11.7481 19.1749 11.7481C19.2738 11.7481 19.3007 11.5008 19.3007 10.5942C19.3007 9.28496 19.361 8.85764 19.5455 8.85764C19.6393 8.85764 19.6741 8.71368 19.675 8.32151C19.6757 8.02659 19.7016 7.69102 19.7324 7.57559C19.7931 7.34911 20.0467 7.28328 20.0467 7.494ZM82.5177 18.4614C82.5177 18.8739 82.484 19.0208 82.3895 19.0208C82.2266 19.0208 82.1447 19.4301 82.1447 20.2446C82.1447 20.7264 82.1128 20.8856 82.0165 20.8856C81.8564 20.8856 81.7718 21.2927 81.7718 22.0628C81.7718 22.5049 81.7389 22.6572 81.6435 22.6572C81.4932 22.6572 81.3988 23.057 81.3988 23.6945C81.3988 24.0181 81.3619 24.1491 81.2706 24.1491C81.1202 24.1491 81.0258 24.5489 81.0258 25.1864C81.0258 25.5092 80.9888 25.6409 80.898 25.6409C80.811 25.6409 80.75 25.8195 80.707 26.2003C80.664 26.5799 80.6027 26.7598 80.5164 26.7598C80.4259 26.7598 80.3701 26.9624 80.3235 27.4591C80.2766 27.9605 80.2215 28.1584 80.1291 28.1584C80.0492 28.1584 80.0002 28.2605 80.0002 28.4265C80.0002 28.8895 79.8887 29.2773 79.7554 29.2773C79.6826 29.2773 79.6272 29.373 79.6272 29.4987C79.6272 29.9188 79.5103 30.3029 79.3825 30.3029C79.2945 30.3029 79.2543 30.4229 79.2543 30.6846C79.2543 30.9879 79.2159 31.0763 79.0678 31.115C78.9104 31.1563 78.8813 31.2422 78.8813 31.6658C78.8813 32.1055 78.8582 32.1677 78.6948 32.1677C78.5394 32.1677 78.5083 32.2299 78.5083 32.5407C78.5083 32.8515 78.4773 32.9136 78.3219 32.9136C78.1561 32.9136 78.1354 32.9758 78.1354 33.4731C78.1354 33.9703 78.1147 34.0325 77.9489 34.0325C77.7935 34.0325 77.7624 34.0947 77.7624 34.4055C77.7624 34.7163 77.7314 34.7785 77.5759 34.7785C77.4205 34.7785 77.3895 34.8406 77.3895 35.1514C77.3895 35.4068 77.3488 35.5244 77.2605 35.5244C77.1148 35.5244 77.0197 35.8034 77.0178 36.2361C77.0169 36.4492 76.9661 36.5414 76.83 36.5771C76.6872 36.6143 76.6435 36.7042 76.6435 36.9608C76.6435 37.2337 76.6089 37.2959 76.4571 37.2959C76.3016 37.2959 76.2706 37.3581 76.2706 37.6689C76.2706 37.9279 76.2304 38.0419 76.1389 38.0419C76.058 38.0419 75.9829 38.1855 75.9442 38.4148C75.9084 38.6265 75.8288 38.7878 75.7599 38.7878C75.6932 38.7878 75.6111 38.9346 75.5774 39.1141C75.5429 39.2981 75.4606 39.4405 75.3888 39.4405C75.3127 39.4405 75.2359 39.591 75.1983 39.8134C75.1596 40.0427 75.0846 40.1864 75.0036 40.1864C74.9312 40.1864 74.872 40.2742 74.872 40.3816C74.872 40.4984 74.7971 40.5964 74.6855 40.6255C74.5453 40.6622 74.499 40.7527 74.499 40.9898C74.499 41.2431 74.4623 41.3053 74.3125 41.3053C74.1571 41.3053 74.126 41.3675 74.126 41.6782C74.126 41.989 74.095 42.0512 73.9396 42.0512C73.8153 42.0512 73.7531 42.1134 73.7531 42.2377C73.7531 42.362 73.6909 42.4242 73.5666 42.4242C73.4112 42.4242 73.3801 42.4863 73.3801 42.7971C73.3801 43.1079 73.3491 43.1701 73.1936 43.1701C73.0427 43.1701 73.0072 43.2323 73.0072 43.4964C73.0072 43.7606 72.9716 43.8228 72.8207 43.8228C72.6839 43.8228 72.6342 43.885 72.6342 44.0559C72.6342 44.2268 72.5845 44.289 72.4477 44.289C72.2968 44.289 72.2612 44.3512 72.2612 44.6153C72.2612 44.8795 72.2257 44.9416 72.0748 44.9416C71.9505 44.9416 71.8883 45.0038 71.8883 45.1281C71.8883 45.2307 71.8291 45.3146 71.7566 45.3146C71.6763 45.3146 71.601 45.4562 71.5635 45.6784C71.5214 45.9277 71.4454 46.0571 71.3222 46.0892C71.2233 46.1152 71.1424 46.2032 71.1424 46.2849C71.1424 46.3666 71.0794 46.4335 71.0025 46.4335C70.9248 46.4335 70.8626 46.5164 70.8626 46.62C70.8626 46.7406 70.8004 46.8064 70.6865 46.8064C70.5591 46.8064 70.4935 46.8966 70.4492 47.1328C70.4126 47.3281 70.3335 47.4591 70.2524 47.4591C70.1699 47.4591 70.1167 47.5504 70.1167 47.6922C70.1167 47.8631 70.067 47.9253 69.9302 47.9253C69.8059 47.9253 69.7438 47.9875 69.7438 48.1118C69.7438 48.2361 69.6816 48.2983 69.5573 48.2983C69.433 48.2983 69.3708 48.3605 69.3708 48.4848C69.3708 48.5873 69.3097 48.6713 69.2351 48.6713C69.154 48.6713 69.0749 48.8023 69.0383 48.9976C68.994 49.2338 68.9284 49.3239 68.801 49.3239C68.6871 49.3239 68.6249 49.3898 68.6249 49.5104C68.6249 49.6347 68.5627 49.6969 68.4384 49.6969C68.3141 49.6969 68.2519 49.7591 68.2519 49.8834C68.2519 49.9918 68.1897 50.0699 68.1033 50.0699C68.0216 50.0699 67.9327 50.1538 67.906 50.2563C67.8789 50.3596 67.7788 50.4428 67.6816 50.4428C67.5682 50.4428 67.506 50.5088 67.506 50.6293C67.506 50.7329 67.4438 50.8158 67.3661 50.8158C67.2885 50.8158 67.2263 50.8987 67.2263 51.0023C67.2263 51.1266 67.1641 51.1887 67.0398 51.1887C66.9155 51.1887 66.8533 51.2509 66.8533 51.3752C66.8533 51.4995 66.7911 51.5617 66.6668 51.5617C66.5425 51.5617 66.4803 51.6239 66.4803 51.7482C66.4803 51.8688 66.4182 51.9347 66.3042 51.9347C66.1771 51.9347 66.1113 52.0245 66.0676 52.2575C66.0155 52.5348 65.9616 52.5887 65.6843 52.6408C65.4513 52.6845 65.3615 52.7503 65.3615 52.8774C65.3615 52.9914 65.2956 53.0536 65.175 53.0536C65.0507 53.0536 64.9885 53.1157 64.9885 53.24C64.9885 53.3643 64.9263 53.4265 64.802 53.4265C64.6777 53.4265 64.6155 53.4887 64.6155 53.613C64.6155 53.7373 64.5533 53.7995 64.4291 53.7995C64.3265 53.7995 64.2426 53.8576 64.2426 53.9284C64.2426 53.9994 64.1587 54.0794 64.0561 54.1062C63.9535 54.133 63.8696 54.2169 63.8696 54.2927C63.8696 54.3684 63.7857 54.4523 63.6831 54.4792C63.5806 54.506 63.4967 54.5948 63.4967 54.6765C63.4967 54.7629 63.4186 54.8251 63.3102 54.8251C63.1859 54.8251 63.1237 54.8873 63.1237 55.0116C63.1237 55.1359 63.0615 55.1981 62.9372 55.1981C62.8129 55.1981 62.7507 55.2603 62.7507 55.3846C62.7507 55.5088 62.6885 55.571 62.5643 55.571C62.4617 55.571 62.3778 55.6321 62.3778 55.7067C62.3778 55.7878 62.2468 55.8669 62.0514 55.9035C61.8153 55.9478 61.7251 56.0135 61.7251 56.1408C61.7251 56.2548 61.6593 56.317 61.5386 56.317C61.4302 56.317 61.3521 56.3792 61.3521 56.4656C61.3521 56.5473 61.2682 56.6361 61.1656 56.6629C61.0631 56.6897 60.9792 56.766 60.9792 56.8325C60.9792 56.9007 60.8169 56.9806 60.6062 57.0163C60.3231 57.0641 60.2332 57.1222 60.2332 57.2576C60.2332 57.3737 60.1683 57.4358 60.0468 57.4358C59.9432 57.4358 59.8603 57.498 59.8603 57.5757C59.8603 57.6534 59.7774 57.7156 59.6738 57.7156C59.5495 57.7156 59.4873 57.7778 59.4873 57.902C59.4873 58.0539 59.4251 58.0885 59.1522 58.0885C58.901 58.0885 58.8055 58.133 58.7707 58.2664C58.7451 58.3642 58.6441 58.4652 58.5463 58.4908C58.4484 58.5163 58.3684 58.6041 58.3684 58.6858C58.3684 58.7935 58.2786 58.8344 58.0421 58.8344C57.7853 58.8344 57.7158 58.8717 57.7158 59.009C57.7158 59.1406 57.6239 59.1983 57.3428 59.2432C57.1015 59.2818 56.9698 59.3518 56.9698 59.4416C56.9698 59.5182 56.8863 59.5804 56.7834 59.5804C56.6591 59.5804 56.5969 59.6426 56.5969 59.7669C56.5969 59.9223 56.5347 59.9533 56.2239 59.9533C55.9131 59.9533 55.8509 59.9844 55.8509 60.1398C55.8509 60.2952 55.7888 60.3263 55.478 60.3263C55.1672 60.3263 55.105 60.3573 55.105 60.5128C55.105 60.6682 55.0428 60.6993 54.7321 60.6993C54.4213 60.6993 54.3591 60.7303 54.3591 60.8857C54.3591 61.0355 54.2969 61.0722 54.0437 61.0722C53.8066 61.0722 53.716 61.1186 53.6794 61.2587C53.6421 61.4015 53.5522 61.4452 53.2956 61.4452C53.0691 61.4452 52.9605 61.4879 52.9605 61.5768C52.9605 61.6578 52.8168 61.7328 52.5875 61.7715C52.3719 61.808 52.2146 61.8866 52.2146 61.958C52.2146 62.0294 52.0573 62.108 51.8416 62.1445C51.6123 62.1832 51.4687 62.2582 51.4687 62.3392C51.4687 62.4306 51.3547 62.4708 51.0957 62.4708C50.8263 62.4708 50.7227 62.4319 50.7227 62.331C50.7227 62.2533 50.8056 62.1911 50.9092 62.1911C51.0335 62.1911 51.0957 62.1289 51.0957 62.0046C51.0957 61.8803 51.1579 61.8181 51.2822 61.8181C51.4065 61.8181 51.4687 61.7559 51.4687 61.6317C51.4687 61.5074 51.5308 61.4452 51.6551 61.4452C51.7794 61.4452 51.8416 61.383 51.8416 61.2587C51.8416 61.1344 51.9038 61.0722 52.0281 61.0722C52.1524 61.0722 52.2146 61.01 52.2146 60.8857C52.2146 60.7614 52.2768 60.6993 52.4011 60.6993C52.5253 60.6993 52.5875 60.6371 52.5875 60.5128C52.5875 60.3885 52.6497 60.3263 52.774 60.3263C52.8983 60.3263 52.9605 60.2641 52.9605 60.1398C52.9605 60.0155 53.0227 59.9533 53.147 59.9533C53.2713 59.9533 53.3335 59.8911 53.3335 59.7669C53.3335 59.6426 53.3956 59.5804 53.5199 59.5804C53.6225 59.5804 53.7064 59.5223 53.7064 59.4514C53.7064 59.3805 53.7903 59.3005 53.8929 59.2736C54.0045 59.2444 54.0794 59.1464 54.0794 59.0297C54.0794 58.9183 54.1394 58.8344 54.2192 58.8344C54.2962 58.8344 54.3591 58.7676 54.3591 58.6858C54.3591 58.6041 54.443 58.5153 54.5456 58.4885C54.6481 58.4617 54.7321 58.3778 54.7321 58.302C54.7321 58.2262 54.816 58.1423 54.9185 58.1156C55.0211 58.0887 55.105 58.0048 55.105 57.9291C55.105 57.8533 55.1889 57.7694 55.2915 57.7426C55.3941 57.7158 55.478 57.6318 55.478 57.5561C55.478 57.4803 55.5619 57.3964 55.6645 57.3696C55.8046 57.333 55.8509 57.2425 55.8509 57.0054C55.8509 56.7521 55.8877 56.6899 56.0374 56.6899C56.1617 56.6899 56.2239 56.6277 56.2239 56.5034C56.2239 56.3792 56.2861 56.317 56.4104 56.317C56.5347 56.317 56.5969 56.2548 56.5969 56.1305C56.5969 56.0062 56.6591 55.944 56.7834 55.944C56.9076 55.944 56.9698 55.8818 56.9698 55.7575C56.9698 55.655 57.0309 55.571 57.1055 55.571C57.186 55.571 57.2653 55.4418 57.3007 55.2533C57.3387 55.0508 57.4248 54.9186 57.538 54.8891C57.6414 54.862 57.7158 54.761 57.7158 54.6474C57.7158 54.536 57.7758 54.4522 57.8556 54.4522C57.9325 54.4522 57.9955 54.3853 57.9955 54.3035C57.9955 54.2219 58.0755 54.134 58.1732 54.1085C58.2864 54.0789 58.3725 53.9467 58.4105 53.7443C58.4459 53.5557 58.5253 53.4265 58.6057 53.4265C58.6813 53.4265 58.7414 53.34 58.7414 53.2313C58.7414 53.1177 58.8157 53.0166 58.9191 52.9896C59.0323 52.96 59.1185 52.8278 59.1564 52.6254C59.1918 52.4369 59.2712 52.3076 59.3517 52.3076C59.4272 52.3076 59.4873 52.2211 59.4873 52.1124C59.4873 51.9956 59.5622 51.8976 59.6738 51.8685C59.8139 51.8318 59.8603 51.7413 59.8603 51.5042C59.8603 51.2509 59.897 51.1887 60.0468 51.1887C60.2022 51.1887 60.2332 51.1266 60.2332 50.8158C60.2332 50.505 60.2643 50.4428 60.4197 50.4428C60.5707 50.4428 60.6062 50.3806 60.6062 50.1165C60.6062 49.8523 60.6417 49.7901 60.7927 49.7901C60.9295 49.7901 60.9792 49.7279 60.9792 49.557C60.9792 49.4128 61.032 49.3239 61.1179 49.3239C61.2077 49.3239 61.2777 49.1923 61.3163 48.951C61.352 48.7279 61.4269 48.578 61.5028 48.578C61.5787 48.578 61.6536 48.4282 61.6893 48.2051C61.7241 47.9872 61.8004 47.8321 61.8726 47.8321C61.9407 47.8321 62.0239 47.6852 62.0576 47.5058C62.0912 47.3263 62.1734 47.1794 62.2401 47.1794C62.309 47.1794 62.3886 47.0181 62.4244 46.8064C62.4597 46.5971 62.5401 46.4335 62.6074 46.4335C62.7283 46.4335 62.844 46.04 62.844 45.6293C62.844 45.5038 62.8994 45.4078 62.9719 45.4078C63.0491 45.4078 63.1235 45.2599 63.1595 45.0349C63.1981 44.7936 63.2681 44.6619 63.3579 44.6619C63.4581 44.6619 63.4967 44.556 63.4967 44.2802C63.4967 43.977 63.535 43.8885 63.6831 43.8498C63.8192 43.8142 63.87 43.722 63.8709 43.5088C63.8728 43.0762 63.9679 42.7971 64.1136 42.7971C64.2081 42.7971 64.2426 42.6574 64.2426 42.2755C64.2426 41.8325 64.2706 41.7467 64.4291 41.7053C64.5651 41.6697 64.6159 41.5774 64.6168 41.3643C64.6187 40.9317 64.7138 40.6526 64.8596 40.6526C64.955 40.6526 64.9885 40.5073 64.9885 40.0931C64.9885 39.5959 65.0092 39.5337 65.175 39.5337C65.3408 39.5337 65.3615 39.4715 65.3615 38.9743C65.3615 38.477 65.3822 38.4148 65.5479 38.4148C65.7175 38.4148 65.7344 38.3526 65.7344 37.7264C65.7344 37.1164 65.7557 37.0324 65.9209 36.9892C66.0867 36.9458 66.1074 36.862 66.1074 36.2324C66.1074 35.6953 66.1382 35.5244 66.235 35.5244C66.388 35.5244 66.4779 35.0529 66.4793 34.2423C66.4801 33.8105 66.5135 33.6596 66.6086 33.6596C66.7686 33.6596 66.8533 33.2525 66.8533 32.4824C66.8533 32.0455 66.8867 31.888 66.9792 31.888C67.105 31.888 67.2263 30.8283 67.2263 29.7291C67.2263 29.3896 67.261 29.2773 67.3661 29.2773C67.4755 29.2773 67.5061 29.1502 67.5065 28.6945C67.5074 27.3031 67.6262 26.0139 67.7534 26.0139C67.8556 26.0139 67.8789 25.5376 67.8789 23.4498C67.8789 20.9096 67.8808 20.8856 68.0742 20.8856C68.1909 20.8856 68.2889 20.8108 68.3181 20.6992C68.3625 20.5294 68.4453 20.5127 69.2418 20.5127C70.0545 20.5127 70.1167 20.4994 70.1167 20.3262C70.1167 20.1521 70.1789 20.1397 71.0491 20.1397C71.7809 20.1397 71.9815 20.1119 71.9815 20.0108C71.9815 19.835 72.2769 19.7696 73.0771 19.7681C73.6905 19.7669 73.7531 19.7495 73.7531 19.5803C73.7531 19.407 73.8153 19.3938 74.628 19.3938C75.4245 19.3938 75.5073 19.3771 75.5517 19.2073C75.595 19.0415 75.6789 19.0208 76.3084 19.0208C76.8426 19.0208 77.0165 18.9898 77.0165 18.8942C77.0165 18.7664 77.7405 18.6479 78.522 18.6479C78.7629 18.6479 78.8813 18.606 78.8813 18.521C78.8813 18.385 79.5066 18.2772 80.3032 18.2758C80.6261 18.2751 80.7461 18.2386 80.7461 18.1406C80.7461 17.9976 81.0362 17.9453 81.9815 17.9176L82.5177 17.902V18.4614ZM2.89045 18.1351C2.89045 18.2443 3.01782 18.2751 3.4732 18.2759C4.28374 18.2773 4.75526 18.3672 4.75526 18.5202C4.75526 18.6124 4.89409 18.6479 5.25437 18.6479C6.16477 18.6479 6.89978 18.7579 6.89978 18.8942C6.89978 18.9891 7.0692 19.0211 7.57578 19.0221C8.37596 19.0236 8.67135 19.0891 8.67135 19.2648C8.67135 19.3661 8.87331 19.3938 9.61252 19.3938C10.4752 19.3938 10.5577 19.4094 10.6024 19.5803C10.6462 19.7477 10.7295 19.7668 11.4212 19.7668C12.3593 19.7668 12.7739 19.8418 12.7739 20.0115C12.7739 20.1129 12.9985 20.1397 13.8462 20.1397C14.6938 20.1397 14.9185 20.1666 14.9185 20.2679C14.9185 20.4183 15.3183 20.5127 15.9557 20.5127H16.4103V22.191C16.4103 23.5443 16.4348 23.8693 16.5372 23.8693C16.7135 23.8693 16.7815 24.5478 16.7824 26.3169C16.7831 27.4973 16.8083 27.7854 16.9109 27.7854C17.0818 27.7854 17.154 28.274 17.1552 29.4404C17.156 30.1887 17.184 30.3962 17.2844 30.3962C17.4547 30.3962 17.5292 30.8113 17.5292 31.7598C17.5292 32.3602 17.5588 32.5407 17.6574 32.5407C17.8078 32.5407 17.9021 32.9405 17.9021 33.578C17.9021 33.9199 17.9368 34.0325 18.042 34.0325C18.1385 34.0325 18.1819 34.1294 18.1819 34.3452C18.1819 35.084 18.3034 35.8041 18.4282 35.8041C18.5039 35.8041 18.5552 35.9072 18.5558 36.0605C18.5579 36.5677 18.6725 37.0162 18.8001 37.0162C18.8887 37.0162 18.9278 37.1411 18.9278 37.4241C18.9278 38.0177 19.0259 38.4148 19.1725 38.4148C19.2661 38.4148 19.3007 38.556 19.3007 38.9364C19.3007 39.3795 19.3288 39.4653 19.4872 39.5067C19.6451 39.548 19.6737 39.6338 19.6737 40.0661C19.6737 40.4984 19.7023 40.5843 19.8602 40.6255C20.0176 40.6668 20.0467 40.7527 20.0467 41.1763C20.0467 41.616 20.0698 41.6782 20.2331 41.6782C20.3886 41.6782 20.4196 41.7404 20.4196 42.0512C20.4196 42.362 20.4507 42.4242 20.6061 42.4242C20.7719 42.4242 20.7926 42.4863 20.7926 42.9836C20.7926 43.4808 20.8133 43.543 20.9791 43.543C21.1345 43.543 21.1656 43.6052 21.1656 43.916C21.1656 44.1714 21.2062 44.289 21.2945 44.289C21.4402 44.289 21.5353 44.568 21.5372 45.0007C21.5381 45.2138 21.589 45.306 21.725 45.3416C21.8678 45.3789 21.9115 45.4688 21.9115 45.7254C21.9115 45.9519 21.9542 46.0605 22.0431 46.0605C22.1241 46.0605 22.1991 46.2042 22.2378 46.4335C22.2743 46.6492 22.3529 46.8064 22.4243 46.8064C22.4957 46.8064 22.5743 46.9637 22.6108 47.1794C22.6472 47.3951 22.7258 47.5524 22.7973 47.5524C22.8687 47.5524 22.9473 47.7097 22.9837 47.9253C23.0195 48.137 23.0992 48.2983 23.1681 48.2983C23.2347 48.2983 23.3169 48.4451 23.3505 48.6246C23.3872 48.82 23.4663 48.951 23.5474 48.951C23.6229 48.951 23.683 49.0375 23.683 49.1462C23.683 49.263 23.7579 49.361 23.8695 49.3901C24.0109 49.4272 24.056 49.5173 24.056 49.7631C24.056 50.0089 24.1011 50.0991 24.2425 50.1361C24.3826 50.1727 24.429 50.2632 24.429 50.5004C24.429 50.7536 24.4657 50.8158 24.6154 50.8158C24.7664 50.8158 24.8019 50.878 24.8019 51.1421C24.8019 51.4063 24.8374 51.4685 24.9884 51.4685C25.1252 51.4685 25.1749 51.5307 25.1749 51.7016C25.1749 51.8725 25.2246 51.9347 25.3614 51.9347C25.5111 51.9347 25.5478 51.9969 25.5478 52.2501C25.5478 52.4872 25.5942 52.5777 25.7343 52.6144C25.8459 52.6436 25.9208 52.7416 25.9208 52.8583C25.9208 52.9914 25.9802 53.0536 26.1073 53.0536C26.2582 53.0536 26.2938 53.1157 26.2938 53.3799C26.2938 53.644 26.3293 53.7062 26.4802 53.7062C26.6045 53.7062 26.6667 53.7684 26.6667 53.8927C26.6667 53.9963 26.7289 54.0792 26.8066 54.0792C26.8864 54.0792 26.9465 54.163 26.9465 54.2744C26.9465 54.3904 27.0212 54.4892 27.1306 54.5178C27.2505 54.5491 27.3355 54.6763 27.3741 54.882C27.4077 55.0611 27.4896 55.1981 27.5629 55.1981C27.6341 55.1981 27.6924 55.282 27.6924 55.3846C27.6924 55.5088 27.7546 55.571 27.8789 55.571C28.0031 55.571 28.0653 55.6332 28.0653 55.7575C28.0653 55.8818 28.1275 55.944 28.2518 55.944C28.3761 55.944 28.4383 56.0062 28.4383 56.1305C28.4383 56.2548 28.5005 56.317 28.6248 56.317C28.7491 56.317 28.8113 56.3792 28.8113 56.5034C28.8113 56.6277 28.8734 56.6899 28.9977 56.6899C29.1487 56.6899 29.1842 56.7521 29.1842 57.0163C29.1842 57.2804 29.2197 57.3426 29.3707 57.3426C29.4912 57.3426 29.5572 57.4048 29.5572 57.5182C29.5572 57.6154 29.6404 57.7156 29.7437 57.7426C29.8462 57.7694 29.9301 57.8533 29.9301 57.9291C29.9301 58.0048 30.0141 58.0887 30.1166 58.1156C30.2192 58.1423 30.3031 58.2262 30.3031 58.302C30.3031 58.3778 30.387 58.4617 30.4896 58.4885C30.5921 58.5153 30.6761 58.5992 30.6761 58.675C30.6761 58.7507 30.76 58.8346 30.8625 58.8615C30.9651 58.8882 31.049 58.9722 31.049 59.048C31.049 59.1237 31.1329 59.2076 31.2355 59.2344C31.3381 59.2612 31.422 59.3451 31.422 59.4209C31.422 59.4966 31.5059 59.5806 31.6085 59.6074C31.711 59.6342 31.7949 59.723 31.7949 59.8047C31.7949 59.8865 31.8579 59.9533 31.9348 59.9533C32.0125 59.9533 32.0747 60.0362 32.0747 60.1398C32.0747 60.2641 32.1369 60.3263 32.2611 60.3263C32.3854 60.3263 32.4476 60.3885 32.4476 60.5128C32.4476 60.6371 32.5098 60.6993 32.6341 60.6993C32.7584 60.6993 32.8206 60.7614 32.8206 60.8857C32.8206 61.01 32.8828 61.0722 33.0071 61.0722C33.1314 61.0722 33.1936 61.1344 33.1936 61.2587C33.1936 61.383 33.2557 61.4452 33.38 61.4452C33.4826 61.4452 33.5665 61.5035 33.5665 61.5747C33.5665 61.6488 33.7059 61.7303 33.8929 61.7654C34.0989 61.8041 34.2192 61.8798 34.2192 61.971C34.2192 62.0504 34.2992 62.1363 34.3971 62.1618C34.4949 62.1874 34.5959 62.2883 34.6214 62.3862C34.6485 62.4897 34.7495 62.5641 34.8631 62.5641C34.9745 62.5641 35.0584 62.6241 35.0584 62.7039C35.0584 62.8049 34.9548 62.8438 34.6854 62.8438C34.4264 62.8438 34.3124 62.8036 34.3124 62.7121C34.3124 62.6312 34.1688 62.5561 33.9395 62.5174C33.7102 62.4787 33.5665 62.4037 33.5665 62.3228C33.5665 62.2366 33.4617 62.1906 33.2635 62.1898C32.832 62.188 32.5409 62.0951 32.5409 61.959C32.5409 61.8946 32.3733 61.8152 32.1679 61.7823C31.9448 61.7466 31.7949 61.6718 31.7949 61.5959C31.7949 61.52 31.6451 61.4451 31.422 61.4094C31.1989 61.3737 31.049 61.2988 31.049 61.2229C31.049 61.147 30.8992 61.0721 30.6761 61.0364C30.4348 60.9978 30.3031 60.9278 30.3031 60.838C30.3031 60.7383 30.1982 60.6993 29.9301 60.6993C29.6194 60.6993 29.5572 60.6682 29.5572 60.5128C29.5572 60.3618 29.495 60.3263 29.2308 60.3263C28.9667 60.3263 28.9045 60.2908 28.9045 60.1398C28.9045 60.003 28.8423 59.9533 28.6714 59.9533C28.5005 59.9533 28.4383 59.9036 28.4383 59.7669C28.4383 59.6171 28.3761 59.5804 28.1229 59.5804C27.8858 59.5804 27.7952 59.534 27.7586 59.3939C27.7213 59.251 27.6314 59.2074 27.3748 59.2074C27.1019 59.2074 27.0397 59.1728 27.0397 59.0209C27.0397 58.9005 26.9775 58.8344 26.8641 58.8344C26.7669 58.8344 26.6667 58.7512 26.6397 58.648C26.6024 58.5051 26.5125 58.4615 26.2559 58.4615C25.983 58.4615 25.9208 58.4269 25.9208 58.275C25.9208 58.1507 25.8586 58.0885 25.7343 58.0885C25.6307 58.0885 25.5478 58.0263 25.5478 57.9487C25.5478 57.871 25.465 57.8088 25.3614 57.8088C25.2399 57.8088 25.1749 57.7466 25.1749 57.6305C25.1749 57.4951 25.085 57.4371 24.8019 57.3892C24.5912 57.3536 24.429 57.2737 24.429 57.2054C24.429 57.139 24.345 57.0627 24.2425 57.0358C24.1399 57.0091 24.056 56.9202 24.056 56.8385C24.056 56.7521 23.978 56.6899 23.8695 56.6899C23.7489 56.6899 23.683 56.6277 23.683 56.5138C23.683 56.3864 23.5929 56.3208 23.3567 56.2765C23.1614 56.2398 23.0304 56.1608 23.0304 56.0797C23.0304 56.0051 22.9464 55.944 22.8439 55.944C22.7196 55.944 22.6574 55.8818 22.6574 55.7575C22.6574 55.6332 22.5952 55.571 22.4709 55.571C22.3466 55.571 22.2844 55.5088 22.2844 55.3846C22.2844 55.2641 22.2222 55.1981 22.1089 55.1981C22.0116 55.1981 21.9115 55.1148 21.8844 55.0116C21.8552 54.9 21.7573 54.8251 21.6405 54.8251C21.5318 54.8251 21.4453 54.765 21.4453 54.6894C21.4453 54.6083 21.3143 54.5293 21.1189 54.4926C20.8828 54.4483 20.7926 54.3827 20.7926 54.2553C20.7926 54.1414 20.7268 54.0792 20.6061 54.0792C20.4818 54.0792 20.4196 54.017 20.4196 53.8927C20.4196 53.7891 20.3574 53.7062 20.2798 53.7062C20.2028 53.7062 20.1399 53.6394 20.1399 53.5576C20.1399 53.4759 20.056 53.3871 19.9534 53.3603C19.8509 53.3335 19.7669 53.2495 19.7669 53.1738C19.7669 53.098 19.683 53.0141 19.5805 52.9873C19.4779 52.9605 19.394 52.8766 19.394 52.8009C19.394 52.7251 19.3101 52.6411 19.2075 52.6144C19.1049 52.5875 19.021 52.5036 19.021 52.4279C19.021 52.3521 18.9371 52.2682 18.8345 52.2414C18.732 52.2146 18.6481 52.1307 18.6481 52.0549C18.6481 51.9791 18.5681 51.8963 18.4702 51.8707C18.3724 51.8452 18.2714 51.7442 18.2458 51.6464C18.2203 51.5485 18.1324 51.4685 18.0508 51.4685C17.969 51.4685 17.9021 51.4055 17.9021 51.3286C17.9021 51.2517 17.822 51.1887 17.7239 51.1887C17.5885 51.1887 17.5304 51.0989 17.4826 50.8158C17.4469 50.6051 17.367 50.4428 17.2988 50.4428C17.2323 50.4428 17.156 50.3589 17.1292 50.2563C17.1024 50.1538 17.0136 50.0699 16.9319 50.0699C16.8454 50.0699 16.7833 49.9918 16.7833 49.8834C16.7833 49.7591 16.7211 49.6969 16.5968 49.6969C16.4725 49.6969 16.4103 49.6347 16.4103 49.5104C16.4103 49.3861 16.3481 49.3239 16.2238 49.3239C16.0995 49.3239 16.0373 49.2617 16.0373 49.1375C16.0373 49.0349 15.9763 48.951 15.9017 48.951C15.8205 48.951 15.7415 48.82 15.7048 48.6246C15.6606 48.3885 15.5949 48.2983 15.4675 48.2983C15.3536 48.2983 15.2914 48.2325 15.2914 48.1118C15.2914 47.9875 15.2292 47.9253 15.1049 47.9253C14.9806 47.9253 14.9185 47.8631 14.9185 47.7389C14.9185 47.6363 14.8592 47.5524 14.7868 47.5524C14.7059 47.5524 14.6308 47.4087 14.5921 47.1794C14.5443 46.8963 14.4862 46.8064 14.3508 46.8064C14.2347 46.8064 14.1725 46.7415 14.1725 46.62C14.1725 46.5174 14.1144 46.4335 14.0436 46.4335C13.9726 46.4335 13.8926 46.3496 13.8658 46.247C13.839 46.1444 13.7548 46.0605 13.6788 46.0605C13.5947 46.0605 13.5167 45.9329 13.4794 45.7342C13.4427 45.5388 13.3637 45.4078 13.2825 45.4078C13.207 45.4078 13.1469 45.3213 13.1469 45.2126C13.1469 45.099 13.0726 44.998 12.9692 44.9709C12.856 44.9414 12.7698 44.8092 12.7319 44.6067C12.6964 44.4182 12.6171 44.289 12.5366 44.289C12.4611 44.289 12.401 44.2024 12.401 44.0937C12.401 43.977 12.3261 43.879 12.2145 43.8498C12.0743 43.8132 12.028 43.7226 12.028 43.4855C12.028 43.2323 11.9913 43.1701 11.8415 43.1701C11.7047 43.1701 11.655 43.1079 11.655 42.937C11.655 42.7952 11.6019 42.7039 11.5194 42.7039C11.4383 42.7039 11.3592 42.5729 11.3225 42.3775C11.2783 42.1414 11.2126 42.0512 11.0852 42.0512C10.9419 42.0512 10.9091 41.9817 10.9091 41.6782C10.9091 41.3675 10.8781 41.3053 10.7226 41.3053C10.5983 41.3053 10.5362 41.2431 10.5362 41.1188C10.5362 41.0162 10.4769 40.9323 10.4045 40.9323C10.3236 40.9323 10.2485 40.7886 10.2098 40.5593C10.1714 40.3317 10.0959 40.1864 10.0162 40.1864C9.93606 40.1864 9.86268 40.0426 9.82604 39.8134C9.79126 39.5956 9.71489 39.4405 9.64273 39.4405C9.57466 39.4405 9.4914 39.2936 9.45774 39.1141C9.42408 38.9346 9.34193 38.7878 9.27527 38.7878C9.20636 38.7878 9.12673 38.6265 9.09093 38.4148C9.05447 38.1992 8.97587 38.0419 8.90445 38.0419C8.83303 38.0419 8.75443 37.8846 8.71797 37.6689C8.67927 37.4396 8.60422 37.2959 8.52328 37.2959C8.43182 37.2959 8.39163 37.182 8.39163 36.923C8.39163 36.6122 8.36058 36.55 8.20515 36.55C8.04972 36.55 8.01867 36.4878 8.01867 36.1771C8.01867 35.8663 7.98762 35.8041 7.83219 35.8041C7.67675 35.8041 7.64571 35.7419 7.64571 35.4311C7.64571 35.1204 7.61466 35.0582 7.45923 35.0582C7.29531 35.0582 7.27274 34.996 7.27274 34.5453C7.27274 34.0947 7.25018 34.0325 7.08626 34.0325C6.93083 34.0325 6.89978 33.9703 6.89978 33.6596C6.89978 33.4053 6.85904 33.2866 6.77158 33.2866C6.63834 33.2866 6.52682 32.8988 6.52682 32.4358C6.52682 32.2299 6.48356 32.1677 6.34034 32.1677C6.18491 32.1677 6.15386 32.1055 6.15386 31.7948C6.15386 31.5411 6.11302 31.4218 6.02603 31.4218C5.93903 31.4218 5.87806 31.2432 5.83498 30.8624C5.79283 30.4899 5.73008 30.3029 5.64729 30.3029C5.50463 30.3029 5.41102 30.0189 5.40924 29.5803C5.40831 29.3737 5.36346 29.2773 5.26808 29.2773C5.17614 29.2773 5.12822 29.1853 5.12822 29.0092C5.12822 28.5462 5.0167 28.1584 4.88346 28.1584C4.79423 28.1584 4.75526 28.0344 4.75526 27.7505C4.75526 27.1569 4.65717 26.7598 4.5105 26.7598C4.43143 26.7598 4.38229 26.657 4.38229 26.4917C4.38229 26.0287 4.27078 25.6409 4.13754 25.6409C4.04626 25.6409 4.00933 25.5099 4.00933 25.1864C4.00933 24.5489 3.91497 24.1491 3.76458 24.1491C3.66705 24.1491 3.63637 23.9796 3.63637 23.441C3.63637 22.8114 3.61567 22.7276 3.44989 22.6842C3.2856 22.6413 3.26322 22.5565 3.26211 21.9703C3.26061 21.1807 3.1946 20.8856 3.0194 20.8856C2.91824 20.8856 2.89045 20.685 2.89045 19.9532C2.89045 19.2097 2.8636 19.0208 2.75796 19.0208C2.59488 19.0208 2.48635 18.5714 2.56942 18.2402C2.63451 17.9811 2.89045 17.8972 2.89045 18.1351ZM43.3567 26.1434C43.3567 26.243 43.615 26.2885 44.4756 26.3402C45.3152 26.3906 45.5945 26.4387 45.5945 26.5324C45.5945 26.6158 45.7801 26.6783 46.154 26.7206C46.5141 26.7614 46.7134 26.8265 46.7134 26.9035C46.7134 26.9704 46.8778 27.0509 47.0864 27.0861C47.3156 27.1248 47.4593 27.1999 47.4593 27.2808C47.4593 27.3533 47.5432 27.4125 47.6458 27.4125C47.7701 27.4125 47.8323 27.4747 47.8323 27.5989C47.8323 27.7508 47.8945 27.7854 48.1674 27.7854C48.424 27.7854 48.5139 27.8291 48.5512 27.9719C48.578 28.0745 48.6619 28.1584 48.7376 28.1584C48.8134 28.1584 48.8963 28.2384 48.9219 28.3363C48.9474 28.4341 49.0484 28.5351 49.1462 28.5606C49.2441 28.5862 49.3241 28.674 49.3241 28.7557C49.3241 28.8421 49.4022 28.9043 49.5106 28.9043C49.6349 28.9043 49.6971 28.9665 49.6971 29.0908C49.6971 29.1944 49.7593 29.2773 49.8369 29.2773C49.9146 29.2773 49.9768 29.3602 49.9768 29.4638C49.9768 29.588 50.039 29.6502 50.1633 29.6502C50.3152 29.6502 50.3498 29.7124 50.3498 29.9853C50.3498 30.2364 50.3942 30.332 50.5275 30.3669C50.6407 30.3964 50.7268 30.5287 50.7648 30.7311C50.8002 30.9196 50.8796 31.0488 50.96 31.0488C51.0562 31.0488 51.0957 31.1576 51.0957 31.4218C51.0957 31.7326 51.1267 31.7948 51.2822 31.7948C51.4531 31.7948 51.4687 31.857 51.4687 32.5407C51.4687 33.2244 51.4842 33.2866 51.6551 33.2866C51.8345 33.2866 51.8416 33.3488 51.8416 34.9183C51.8416 36.4878 51.8345 36.55 51.6551 36.55C51.4894 36.55 51.4687 36.6122 51.4687 37.1095C51.4687 37.6067 51.448 37.6689 51.2822 37.6689C51.1164 37.6689 51.0957 37.7311 51.0957 38.2283C51.0957 38.7256 51.075 38.7878 50.9092 38.7878C50.7583 38.7878 50.7227 38.85 50.7227 39.1141C50.7227 39.3783 50.6872 39.4405 50.5363 39.4405C50.3995 39.4405 50.3498 39.5027 50.3498 39.6736C50.3498 39.8445 50.3001 39.9067 50.1633 39.9067C50.039 39.9067 49.9768 39.9689 49.9768 40.0931C49.9768 40.1957 49.9157 40.2796 49.8411 40.2796C49.76 40.2796 49.681 40.4106 49.6443 40.606C49.6 40.8421 49.5344 40.9323 49.407 40.9323C49.2965 40.9323 49.2309 40.9979 49.2309 41.1084C49.2309 41.2358 49.1407 41.3014 48.9045 41.3457C48.7092 41.3824 48.5782 41.4614 48.5782 41.5426C48.5782 41.6172 48.4943 41.6782 48.3917 41.6782C48.2674 41.6782 48.2052 41.7404 48.2052 41.8647C48.2052 41.9918 48.1431 42.0512 48.01 42.0512C47.8933 42.0512 47.7953 42.1261 47.7661 42.2377C47.7294 42.3778 47.6389 42.4242 47.4018 42.4242C47.1963 42.4242 47.0864 42.4688 47.0864 42.5524C47.0864 42.6789 46.703 42.7971 46.2931 42.7971C46.1609 42.7971 46.0643 42.8666 46.0337 42.9836C45.9903 43.1494 45.9065 43.1701 45.2769 43.1701C44.7383 43.1701 44.5689 43.2008 44.5689 43.2983C44.5689 43.4741 44.1491 43.543 43.077 43.543C42.0049 43.543 41.5852 43.4741 41.5852 43.2983C41.5852 43.206 41.4482 43.1697 41.0957 43.1688C40.4754 43.1672 40.1866 43.0901 40.1866 42.9261C40.1866 42.8378 40.069 42.7971 39.8136 42.7971C39.5028 42.7971 39.4407 42.7661 39.4407 42.6106C39.4407 42.4552 39.3785 42.4242 39.0677 42.4242C38.7569 42.4242 38.6947 42.3931 38.6947 42.2377C38.6947 42.1134 38.6325 42.0512 38.5083 42.0512C38.4057 42.0512 38.3218 41.9901 38.3218 41.9155C38.3218 41.8351 38.1925 41.7557 38.004 41.7203C37.8016 41.6823 37.6694 41.5962 37.6398 41.483C37.6128 41.3796 37.5117 41.3053 37.3981 41.3053C37.2651 41.3053 37.2029 41.2459 37.2029 41.1188C37.2029 40.9945 37.1407 40.9323 37.0164 40.9323C36.8921 40.9323 36.8299 40.8701 36.8299 40.7458C36.8299 40.6433 36.7718 40.5593 36.701 40.5593C36.63 40.5593 36.55 40.4754 36.5232 40.3729C36.4964 40.2703 36.4122 40.1864 36.3362 40.1864C36.2521 40.1864 36.1741 40.0587 36.1368 39.86C36.1001 39.6647 36.0211 39.5337 35.9399 39.5337C35.8644 39.5337 35.8043 39.4472 35.8043 39.3385C35.8043 39.2217 35.7294 39.1237 35.6178 39.0945C35.4764 39.0575 35.4313 38.9674 35.4313 38.7216C35.4313 38.4758 35.3862 38.3855 35.2448 38.3486C35.0874 38.3074 35.0584 38.2214 35.0584 37.7979C35.0584 37.3581 35.0352 37.2959 34.8719 37.2959C34.6902 37.2959 34.6854 37.2337 34.6854 34.9183C34.6854 32.9562 34.708 32.5407 34.8143 32.5407C34.9613 32.5407 35.0552 32.261 35.0571 31.8181C35.0579 31.6198 35.1039 31.515 35.19 31.515C35.2709 31.515 35.346 31.3714 35.3847 31.1421C35.4212 30.9264 35.4998 30.7691 35.5712 30.7691C35.6426 30.7691 35.7212 30.6118 35.7577 30.3962C35.7964 30.1669 35.8714 30.0232 35.9523 30.0232C36.0248 30.0232 36.084 29.9393 36.084 29.8367C36.084 29.7124 36.1462 29.6502 36.2705 29.6502C36.3948 29.6502 36.457 29.588 36.457 29.4638C36.457 29.3431 36.5192 29.2773 36.6331 29.2773C36.7602 29.2773 36.826 29.1874 36.8697 28.9545C36.9218 28.6772 36.9757 28.6232 37.253 28.5712C37.486 28.5274 37.5758 28.4616 37.5758 28.3345C37.5758 28.2206 37.6417 28.1584 37.7623 28.1584C37.8866 28.1584 37.9488 28.0962 37.9488 27.9719C37.9488 27.8476 38.011 27.7854 38.1353 27.7854C38.2379 27.7854 38.3218 27.7262 38.3218 27.6538C38.3218 27.5728 38.4655 27.4978 38.6947 27.4591C38.9104 27.4226 39.0677 27.344 39.0677 27.2726C39.0677 27.2012 39.225 27.1226 39.4407 27.0861C39.65 27.0508 39.8136 26.9704 39.8136 26.9031C39.8136 26.7823 40.2071 26.6665 40.6178 26.6665C40.7446 26.6665 40.8393 26.6112 40.8393 26.537C40.8393 26.4374 41.0975 26.3919 41.9581 26.3402C42.8187 26.2885 43.077 26.243 43.077 26.1434C43.077 26.0721 43.14 26.0139 43.2169 26.0139C43.2938 26.0139 43.3567 26.0721 43.3567 26.1434ZM33.9395 40.7458C33.9395 40.8701 34.0017 40.9323 34.126 40.9323C34.2814 40.9323 34.3124 40.9945 34.3124 41.3053C34.3124 41.616 34.3435 41.6782 34.4989 41.6782C34.6232 41.6782 34.6854 41.7404 34.6854 41.8647C34.6854 41.989 34.7476 42.0512 34.8719 42.0512C34.9962 42.0512 35.0584 42.1134 35.0584 42.2377C35.0584 42.362 35.1205 42.4242 35.2448 42.4242C35.3691 42.4242 35.4313 42.4863 35.4313 42.6106C35.4313 42.7349 35.4935 42.7971 35.6178 42.7971C35.7421 42.7971 35.8043 42.8593 35.8043 42.9836C35.8043 43.1079 35.8665 43.1701 35.9908 43.1701C36.0933 43.1701 36.1772 43.2312 36.1772 43.3057C36.1772 43.3869 36.3082 43.4659 36.5036 43.5026C36.7398 43.5469 36.8299 43.6125 36.8299 43.7399C36.8299 43.8502 36.8956 43.916 37.0055 43.916C37.1027 43.916 37.2029 43.9993 37.2299 44.1025C37.2672 44.2453 37.3571 44.289 37.6137 44.289C37.8402 44.289 37.9488 44.3317 37.9488 44.4206C37.9488 44.5015 38.0925 44.5766 38.3218 44.6153C38.5374 44.6518 38.6947 44.7304 38.6947 44.8018C38.6947 44.8732 38.852 44.9518 39.0677 44.9883C39.2783 45.0239 39.4407 45.1038 39.4407 45.1719C39.4407 45.2542 39.6636 45.3136 40.14 45.3582C40.6498 45.406 40.8393 45.4595 40.8393 45.5556C40.8393 45.666 41.2357 45.6876 43.2635 45.6876C45.2654 45.6876 45.6878 45.6651 45.6878 45.5586C45.6878 45.4067 45.9701 45.3177 46.457 45.3159C46.692 45.315 46.8066 45.2723 46.8066 45.1857C46.8066 45.0387 47.0864 44.9448 47.5293 44.9429C47.7275 44.9421 47.8323 44.8961 47.8323 44.81C47.8323 44.7291 47.976 44.654 48.2052 44.6153C48.4169 44.5795 48.5782 44.4999 48.5782 44.431C48.5782 44.3643 48.7251 44.2822 48.9045 44.2485C49.0999 44.2118 49.2309 44.1328 49.2309 44.0517C49.2309 43.9761 49.3174 43.916 49.4261 43.916C49.5397 43.916 49.6408 43.8417 49.6678 43.7381C49.6934 43.6403 49.7943 43.5393 49.8921 43.5138C49.99 43.4882 50.07 43.4004 50.07 43.3187C50.07 43.2323 50.1481 43.1701 50.2565 43.1701C50.3808 43.1701 50.443 43.1079 50.443 42.9836C50.443 42.8593 50.5052 42.7971 50.6295 42.7971C50.7538 42.7971 50.816 42.7349 50.816 42.6106C50.816 42.4863 50.8782 42.4242 51.0025 42.4242C51.106 42.4242 51.1889 42.362 51.1889 42.2843C51.1889 42.2074 51.2519 42.1444 51.3288 42.1444C51.4065 42.1444 51.4687 42.0615 51.4687 41.958C51.4687 41.8337 51.5308 41.7715 51.6551 41.7715C51.8303 41.7715 51.8416 41.8337 51.8416 42.7971C51.8416 43.7606 51.8303 43.8228 51.6551 43.8228C51.4811 43.8228 51.4687 43.885 51.4687 44.7552C51.4687 45.6254 51.4563 45.6876 51.2822 45.6876C51.1113 45.6876 51.0957 45.7498 51.0957 46.4335C51.0957 47.0042 51.0656 47.1794 50.9675 47.1794C50.8171 47.1794 50.7227 47.5792 50.7227 48.2167C50.7227 48.5416 50.6859 48.6713 50.5938 48.6713C50.4306 48.6713 50.3527 48.9596 50.3511 49.5694C50.35 49.9691 50.319 50.0562 50.1633 50.0969C50.0049 50.1383 49.9768 50.2241 49.9768 50.6672C49.9768 51.0542 49.9429 51.1887 49.8452 51.1887C49.7642 51.1887 49.6892 51.3324 49.6505 51.5617C49.6152 51.7703 49.5348 51.9347 49.4678 51.9347C49.3908 51.9347 49.3257 52.1339 49.285 52.4941C49.2399 52.8916 49.1825 53.0536 49.0864 53.0536C49.0062 53.0536 48.9512 53.1437 48.9512 53.275C48.9512 53.6812 48.8359 54.0792 48.7183 54.0792C48.6544 54.0792 48.5752 54.247 48.5424 54.4522C48.5038 54.6935 48.4338 54.8251 48.344 54.8251C48.2443 54.8251 48.2052 54.93 48.2052 55.1981C48.2052 55.5088 48.1742 55.571 48.0188 55.571C47.8633 55.571 47.8323 55.6332 47.8323 55.944C47.8323 56.2548 47.8012 56.317 47.6458 56.317C47.4904 56.317 47.4593 56.3792 47.4593 56.6899C47.4593 57.0007 47.4283 57.0629 47.2728 57.0629C47.1219 57.0629 47.0864 57.1251 47.0864 57.3892C47.0864 57.6534 47.0508 57.7156 46.8999 57.7156C46.7444 57.7156 46.7134 57.7778 46.7134 58.0885C46.7134 58.3993 46.6823 58.4615 46.5269 58.4615C46.3715 58.4615 46.3404 58.5237 46.3404 58.8344C46.3404 59.1452 46.3094 59.2074 46.154 59.2074C46.0297 59.2074 45.9675 59.2696 45.9675 59.3939C45.9675 59.4965 45.9083 59.5804 45.8358 59.5804C45.7549 59.5804 45.6798 59.7241 45.6411 59.9533C45.5933 60.2364 45.5352 60.3263 45.3998 60.3263C45.2837 60.3263 45.2216 60.3913 45.2216 60.5128C45.2216 60.6153 45.1623 60.6993 45.0899 60.6993C45.009 60.6993 44.9339 60.8429 44.8952 61.0722C44.8565 61.3015 44.7815 61.4452 44.7005 61.4452C44.6281 61.4452 44.5689 61.512 44.5689 61.5938C44.5689 61.6755 44.4889 61.7633 44.3912 61.7889C44.278 61.8184 44.1918 61.9506 44.1539 62.1531C44.1184 62.3416 44.0391 62.4708 43.9586 62.4708C43.884 62.4708 43.8229 62.5547 43.8229 62.6573C43.8229 62.7774 43.7608 62.8438 43.6484 62.8438C43.5168 62.8438 43.4591 62.9356 43.4142 63.2167C43.3756 63.458 43.3056 63.5897 43.2158 63.5897C43.1392 63.5897 43.077 63.6732 43.077 63.7762C43.077 63.9005 43.0148 63.9627 42.8905 63.9627C42.7663 63.9627 42.7041 63.9005 42.7041 63.7762C42.7041 63.6519 42.6419 63.5897 42.5176 63.5897C42.3933 63.5897 42.3311 63.5275 42.3311 63.4032C42.3311 63.3007 42.27 63.2167 42.1954 63.2167C42.1143 63.2167 42.0353 63.0857 41.9986 62.8904C41.9543 62.6542 41.8887 62.5641 41.7613 62.5641C41.6356 62.5641 41.5852 62.4973 41.5852 62.331C41.5852 62.1891 41.532 62.0979 41.4495 62.0979C41.3684 62.0979 41.2893 61.9669 41.2527 61.7715C41.2084 61.5353 41.1428 61.4452 41.0154 61.4452C40.9014 61.4452 40.8393 61.3794 40.8393 61.2587C40.8393 61.1561 40.7801 61.0722 40.7076 61.0722C40.6267 61.0722 40.5516 60.9285 40.5129 60.6993C40.4742 60.47 40.3992 60.3263 40.3182 60.3263C40.2458 60.3263 40.1866 60.2424 40.1866 60.1398C40.1866 60.0183 40.1244 59.9533 40.0083 59.9533C39.8729 59.9533 39.8148 59.8634 39.767 59.5804C39.7283 59.3511 39.6532 59.2074 39.5723 59.2074C39.4999 59.2074 39.4407 59.1235 39.4407 59.0209C39.4407 58.8966 39.3785 58.8344 39.2542 58.8344C39.0987 58.8344 39.0677 58.7723 39.0677 58.4615C39.0677 58.1507 39.0366 58.0885 38.8812 58.0885C38.7293 58.0885 38.6947 58.0263 38.6947 57.7534C38.6947 57.4968 38.6511 57.4069 38.5083 57.3696C38.3681 57.333 38.3218 57.2425 38.3218 57.0054C38.3218 56.7521 38.285 56.6899 38.1353 56.6899C37.9799 56.6899 37.9488 56.6277 37.9488 56.317C37.9488 56.0062 37.9178 55.944 37.7623 55.944C37.6069 55.944 37.5758 55.8818 37.5758 55.571C37.5758 55.312 37.5357 55.1981 37.4442 55.1981C37.3633 55.1981 37.2882 55.0544 37.2495 54.8251C37.2142 54.6158 37.1338 54.4522 37.0665 54.4522C36.9456 54.4522 36.8299 54.0587 36.8299 53.648C36.8299 53.5175 36.7748 53.4265 36.6958 53.4265C36.6083 53.4265 36.5398 53.2806 36.4987 53.0069C36.4589 52.7417 36.3882 52.5873 36.3065 52.5873C36.2326 52.5873 36.1772 52.4925 36.1772 52.3659C36.1772 51.9459 36.0603 51.5617 35.9325 51.5617C35.8534 51.5617 35.8043 51.459 35.8043 51.2936C35.8043 50.8306 35.6928 50.4428 35.5595 50.4428C35.4805 50.4428 35.4313 50.3401 35.4313 50.1748C35.4313 49.7117 35.3198 49.3239 35.1866 49.3239C35.0943 49.3239 35.058 49.187 35.0571 48.8344C35.0555 48.2142 34.9784 47.9253 34.8143 47.9253C34.7153 47.9253 34.6854 47.7524 34.6854 47.1794C34.6854 46.4957 34.6698 46.4335 34.4989 46.4335C34.3254 46.4335 34.3124 46.3713 34.3124 45.5389C34.3124 44.7229 34.2961 44.6402 34.126 44.5957C33.9512 44.55 33.9395 44.4685 33.9395 43.299C33.9395 42.2987 33.9139 42.0512 33.8105 42.0512C33.6432 42.0512 33.5694 41.7606 33.5678 41.0955C33.5667 40.6211 33.588 40.5593 33.753 40.5593C33.8773 40.5593 33.9395 40.6215 33.9395 40.7458ZM80.9559 79.6929C80.8406 79.7151 80.7461 79.7933 80.7461 79.8667C80.7461 79.9704 80.9011 80 81.4454 80C81.9766 80 82.1447 79.9691 82.1447 79.8718C82.1447 79.6748 81.5301 79.5823 80.9559 79.6929Z" fill="black"/>
</svg>
